<?xml version="1.0" encoding="UTF-8" standalone="no"?>
<!-- Created with Inkscape (http://www.inkscape.org/) -->

<svg
   width="217mm"
   height="217mm"
   viewBox="0 0 217 217"
   version="1.1"
   id="svg1"
   xml:space="preserve"
   xmlns:xlink="http://www.w3.org/1999/xlink"
   xmlns="http://www.w3.org/2000/svg"
   xmlns:svg="http://www.w3.org/2000/svg"><defs
     id="defs1" /><g
     id="layer1"><image
       width="317"
       height="317.5"
       preserveAspectRatio="none"
       style="image-rendering:optimizeQuality"
       xlink:href="favicon.png"
       id="image1"
       x="-50"
       y="-50" /><g
       id="g45"
       transform="translate(0,550)"><path
         style="fill:#e4dada"
         d="M -50,108.75 V -50 H 108.5 267 V 108.75 267.5 H 108.5 -50 Z"
         id="path54" /><path
         style="fill:#d6cdcd"
         d="m 23.7025,157.80507 c -1.966446,-0.52403 -3.652891,-1.60976 -4.602573,-2.96313 -1.005094,-1.43233 -1.251566,-3.93641 -0.564748,-5.73766 0.447126,-1.17263 2.016631,-2.82708 3.189814,-3.36246 0.632982,-0.28886 0.633563,-0.29299 0.131299,-0.93252 -1.156178,-1.47216 -0.849269,-4.05647 0.670469,-5.64565 l 0.645401,-0.67488 -1.03934,-1.01649 c -1.549843,-1.51577 -2.231524,-3.2819 -2.226377,-5.76818 0.0037,-1.80894 0.110314,-2.25594 0.909524,-3.81494 0.993836,-1.93866 2.530195,-3.23747 4.560665,-3.8555 1.355618,-0.41262 14.643042,-0.30596 15.166491,0.12174 0.378524,0.30929 0.438385,2.27002 0.08631,2.82706 -0.138698,0.21945 -0.846167,0.42379 -1.717915,0.49619 -0.815158,0.0677 -1.53856,0.21459 -1.607559,0.32641 -0.069,0.11182 0.06107,0.65042 0.289035,1.19688 0.489735,1.17395 0.553843,3.76913 0.131797,5.33537 -0.479047,1.77778 -1.795931,3.26683 -3.791888,4.28763 -1.597926,0.81723 -2.030472,0.91485 -4.551034,1.02713 -2.69257,0.11994 -2.807074,0.15 -3.439828,0.90317 -0.693145,0.82506 -0.805881,1.41191 -0.396011,2.06143 0.199865,0.31672 1.172668,0.4298 4.816997,0.5599 3.803964,0.13581 4.818782,0.25995 6.076948,0.74341 2.862148,1.09979 4.466004,3.84874 4.055195,6.95046 -0.651175,4.91653 -4.865889,7.38657 -12.523202,7.33923 -1.575778,-0.01 -3.456606,-0.18798 -4.26947,-0.4046 z m 8.585656,-3.69021 c 1.939573,-0.50599 3.163876,-1.41425 3.570731,-2.64898 0.377113,-1.14446 0.157414,-2.53482 -0.49382,-3.12511 -0.752264,-0.68186 -3.326063,-1.02668 -6.775484,-0.90773 -4.715558,0.16262 -5.94375,0.9614 -5.94375,3.86566 0,1.05292 0.13281,1.43299 0.698844,1.99992 0.384364,0.38497 1.067896,0.80719 1.518959,0.93826 1.35802,0.39462 5.718856,0.32295 7.42452,-0.12202 z M 31.6275,135.53865 c 1.243723,-0.62229 1.848242,-1.90709 1.848756,-3.92921 7.12e-4,-2.79928 -1.591927,-4.33778 -4.490423,-4.33778 -2.880628,0 -4.490833,1.54099 -4.490833,4.29779 0,3.08209 1.338687,4.39982 4.490833,4.42053 1.125668,0.007 2.035538,-0.14806 2.641667,-0.45133 z m 83.74083,22.50482 c -0.6985,-0.25003 -1.05677,-0.9477 -1.05262,-2.04977 0.006,-1.68502 0.18662,-1.80797 2.69738,-1.8396 2.00345,-0.0252 2.32323,-0.10159 3.18582,-0.76063 0.91167,-0.69653 2.02102,-2.64099 2.83287,-4.96538 0.31631,-0.90563 0.18118,-1.29887 -4.2384,-12.3342 -2.70341,-6.7502 -4.49762,-11.5749 -4.39962,-11.83069 0.13247,-0.34576 0.55602,-0.43195 2.12269,-0.43195 1.30324,0 2.05432,0.11722 2.24788,0.35081 0.31021,0.37437 3.14882,7.61445 5.46414,13.93669 0.77274,2.11005 1.47024,3.65786 1.55001,3.43958 0.0798,-0.21828 1.50892,-4.19629 3.17592,-8.84002 1.667,-4.64374 3.18525,-8.54389 3.37388,-8.66701 0.18863,-0.12311 1.17509,-0.19322 2.19214,-0.1558 1.68019,0.0618 1.85673,0.12131 1.93196,0.65097 0.0963,0.67801 0.12084,0.60892 -5.6063,15.78096 -2.40861,6.38076 -4.75722,12.31157 -5.21914,13.17958 -1.02475,1.92566 -2.97075,3.73341 -4.62761,4.29885 -1.18242,0.40353 -4.74725,0.55395 -5.631,0.23761 z m 19.89773,-5.9e-4 c -0.92763,-0.18086 -1.17525,-0.72013 -1.0897,-2.37316 l 0.0799,-1.54368 h 2.30066 c 1.85534,0 2.39223,-0.0914 2.77375,-0.47221 0.43968,-0.43887 0.48242,-1.48524 0.60517,-14.81667 0.0726,-7.88945 0.22826,-14.49328 0.3458,-14.67518 0.30919,-0.47848 3.72117,-0.44539 4.12337,0.04 0.22733,0.27436 0.28722,4.14298 0.23038,14.88282 -0.0681,12.86523 -0.12653,14.61717 -0.51501,15.43813 -1.22994,2.59915 -3.15334,3.71863 -6.29787,3.66555 -1.08969,-0.0184 -2.24009,-0.0839 -2.55644,-0.14559 z M 53.025,148.15076 c -1.920196,-0.3382 -4.427277,-1.53476 -5.779594,-2.75842 -2.359711,-2.13522 -3.703285,-6.49768 -3.341381,-10.84914 0.585575,-7.04084 5.029147,-11.35606 11.221162,-10.89704 3.013704,0.22341 4.372837,0.80628 6.24418,2.67783 2.199828,2.20008 2.803195,3.80149 2.848926,7.56143 l 0.03379,2.77812 -7.792916,0.13229 -7.792917,0.13229 0.08935,1.19063 c 0.206335,2.74959 2.031343,5.15619 4.41755,5.82534 1.669081,0.46805 5.630271,0.19276 7.716371,-0.53626 2.288205,-0.79964 2.480147,-0.67745 2.384093,1.5178 -0.07089,1.6201 -0.141343,1.81727 -0.754121,2.11047 -2.127373,1.01792 -6.877529,1.57559 -9.49449,1.11466 z m 6.453391,-16.05128 c -0.560338,-2.53482 -1.586806,-3.78564 -3.528775,-4.30004 -1.27801,-0.33853 -3.173557,-0.16005 -4.241969,0.39942 -0.970539,0.50822 -2.030352,1.70999 -2.49905,2.83379 -0.782858,1.87706 -1.01355,1.79443 5.010186,1.79443 h 5.420449 z m 18.469859,16.04836 c -3.71416,-0.62149 -6.585139,-2.64246 -7.987328,-5.6225 -0.982897,-2.08893 -1.351057,-3.89459 -1.346184,-6.60243 0.0099,-5.5051 2.261584,-9.62906 6.289828,-11.51984 1.324824,-0.62185 1.821779,-0.70369 4.272934,-0.70369 2.444578,0 2.949936,0.0827 4.25837,0.69701 3.760463,1.76549 5.772672,5.39691 5.778433,10.4283 8.42e-4,0.73488 -0.14112,1.47902 -0.31547,1.65364 -0.231945,0.23231 -2.367451,0.3175 -7.959032,0.3175 h -7.642033 l 0.179324,1.35395 c 0.364694,2.75353 2.170506,5.1799 4.294836,5.77072 1.822456,0.50687 4.774808,0.34301 7.442952,-0.41309 2.857199,-0.80967 2.93381,-0.77305 2.940242,1.40546 0.0026,0.88798 -0.139726,1.51416 -0.404488,1.77934 -0.534926,0.53577 -2.696653,1.17614 -5.006884,1.48318 -2.15853,0.28689 -2.943342,0.28238 -4.7955,-0.0275 z m 6.248417,-16.05844 c 0,-1.09193 -1.069402,-3.01514 -2.032824,-3.65582 -1.581041,-1.0514 -3.936478,-1.08102 -5.935971,-0.0746 -1.301938,0.65529 -2.597872,2.62643 -2.597872,3.95142 0,0.49534 0.218542,0.51671 5.283333,0.51671 h 5.283334 z m 74.597693,15.9543 c -0.88791,-0.19346 -2.12287,-0.61156 -2.74435,-0.92911 -2.58657,-1.32165 -4.87877,-4.57883 -5.57034,-7.91537 -0.442,-2.13244 -0.16618,-6.65683 0.52556,-8.6211 1.62796,-4.62275 5.82776,-7.27502 10.98852,-6.93949 6.27148,0.40774 9.96125,4.43954 10.3461,11.30512 0.40886,7.29401 -3.00714,12.22303 -9.15735,13.21328 -2.09188,0.33682 -2.35298,0.33008 -4.38814,-0.11333 z m 5.31272,-4.33961 c 1.33298,-0.61618 2.05852,-1.40542 2.82689,-3.07509 0.53489,-1.16231 0.60728,-1.72966 0.60728,-4.75921 0,-3.25215 -0.0413,-3.52392 -0.75875,-4.98728 -1.29786,-2.64734 -3.96724,-3.76708 -7.30015,-3.06221 -2.98355,0.63098 -4.48902,3.33052 -4.48902,8.04949 0,4.1388 1.18692,6.7597 3.54757,7.83357 1.43948,0.65483 4.15041,0.65519 5.56618,7.3e-4 z m 21.79375,4.43116 c -4.37933,-0.72458 -7.66445,-3.88824 -8.71774,-8.39542 -0.73761,-3.15636 -0.22765,-8.095 1.10632,-10.71392 0.88663,-1.74067 2.96631,-3.72791 4.77893,-4.5665 1.47042,-0.68027 1.92229,-0.75947 4.28541,-0.75112 2.11429,0.007 2.94338,0.12954 4.15296,0.61145 3.2182,1.28217 5.29513,4.41091 5.77283,8.69636 0.17768,1.59391 0.17663,2.60148 -0.003,3.07519 l -0.26745,0.70454 h -7.70433 -7.70433 l 0.15139,1.46912 c 0.21353,2.07222 1.36107,4.01065 2.96775,5.01317 1.21401,0.75751 1.40572,0.79375 4.19864,0.79375 2.38208,0 3.2897,-0.11912 4.87849,-0.64031 1.89196,-0.62065 1.96298,-0.62519 2.31146,-0.14787 0.51567,0.70634 0.45562,2.60323 -0.10277,3.24646 -0.563,0.64852 -2.47623,1.27925 -4.95313,1.63287 -2.15451,0.30759 -3.15698,0.30219 -5.15125,-0.0278 z m 6.48431,-16.30035 c -0.43847,-2.435 -1.82623,-3.85304 -4.07377,-4.16264 -3.13281,-0.43155 -5.7336,1.34735 -6.47267,4.42722 l -0.1746,0.7276 h 5.44985 5.44985 z m -97.000503,16.16978 c -0.312096,-0.0694 -0.637379,-0.38728 -0.722852,-0.70653 -0.286976,-1.07187 -0.181659,-31.93272 0.110843,-32.48013 0.229974,-0.43039 0.564563,-0.51177 2.104039,-0.51177 1.539475,0 1.874064,0.0814 2.104039,0.51177 0.17358,0.32485 0.273461,3.89829 0.273461,9.78367 v 9.2719 l 1.121473,-1.25086 c 0.61681,-0.68797 2.71184,-2.9475 4.65563,-5.02117 l 3.53416,-3.77031 h 2.04827 c 1.48886,0 2.13716,0.10727 2.37371,0.39275 0.4053,0.48912 0.1089,0.86065 -4.81762,6.03891 -1.99776,2.09984 -3.63229,3.97461 -3.63229,4.16616 0,0.19156 0.21924,0.59408 0.48721,0.8945 1.64336,1.84242 8.75862,11.60649 8.75862,12.01922 0,0.34766 -0.25082,0.54964 -0.82552,0.66476 -1.202,0.24078 -2.74089,0.2025 -3.50139,-0.0871 -0.40693,-0.15496 -2.0601,-2.12195 -4.28063,-5.09323 -1.98972,-2.66243 -3.70994,-4.94381 -3.82271,-5.06974 -0.11278,-0.12594 -0.62328,0.0905 -1.13444,0.48102 l -0.929385,0.70999 -0.08359,4.32629 c -0.04597,2.37946 -0.160227,4.40273 -0.253899,4.49616 -0.223999,0.22341 -2.841616,0.39493 -3.567133,0.23373 z m 45.410053,-26.69666 c -0.64492,-0.45243 -1.21466,-2.1792 -0.96955,-2.93854 0.55835,-1.7298 1.54489,-2.39765 3.10794,-2.10395 1.36374,0.25624 1.88984,1.01389 1.88984,2.72161 0,1.26107 -0.0967,1.53368 -0.74119,2.08889 -0.86818,0.74796 -2.39768,0.8559 -3.28704,0.23199 z m -34.77935,-18.54959 c -1.86899,-0.57467 -4.18864,-2.944663 -4.75644,-4.859681 -0.90493,-3.052042 -0.30126,-5.449321 1.93663,-7.690749 1.15995,-1.161775 1.8495,-1.618218 2.9303,-1.939687 3.04723,-0.90636 5.44074,-0.301741 7.67864,1.939687 2.23789,2.241428 2.84156,4.638707 1.93663,7.690749 -0.58959,1.988479 -2.88158,4.284091 -4.86693,4.874601 -1.72772,0.51389 -3.15323,0.50951 -4.85883,-0.0149 z M 86.177917,97.192692 c -2.425279,-0.54553 -3.855857,-1.635949 -4.794279,-3.654308 -0.593335,-1.276145 -0.616072,-1.568462 -0.618557,-7.952655 -0.0019,-4.805196 0.08459,-6.715123 0.314419,-6.945312 0.376273,-0.376867 2.026295,-0.414475 2.588833,-0.05901 0.329066,0.207937 0.418645,1.377386 0.528334,6.897364 l 0.132083,6.646973 0.862709,0.771501 0.86271,0.771501 h 6.221115 c 3.783195,0 6.421353,0.107333 6.732083,0.273892 0.399094,0.213926 0.510966,0.559459 0.510966,1.578191 0,1.018733 -0.111872,1.364266 -0.510966,1.578191 -0.498216,0.267058 -11.695173,0.348807 -12.82945,0.09367 z M 75.221377,76.286567 c -0.541383,-0.689342 -0.55764,-0.930266 -0.481465,-7.134786 0.07057,-5.747855 0.128315,-6.470856 0.550564,-6.893337 0.427362,-0.427597 1.089329,-0.471986 7.038724,-0.471986 6.087109,0 6.607633,0.03683 7.123066,0.504028 0.537277,0.486997 0.556067,0.729242 0.556067,7.168889 0,6.12079 -0.03944,6.700606 -0.483092,7.102743 C 89.102729,76.945089 88.210706,77 82.411914,77 H 75.78168 Z m 29.105393,-2.814236 c -1.92618,-1.94831 -3.4876,-3.744935 -3.4876,-4.012956 0,-0.268021 1.56142,-2.064646 3.4876,-4.012956 2.69286,-2.723786 3.64385,-3.527669 4.17323,-3.527669 0.52938,0 1.48037,0.803883 4.17323,3.527669 1.92618,1.94831 3.4876,3.744935 3.4876,4.012956 0,0.268021 -1.56142,2.064646 -3.4876,4.012956 C 109.98037,76.196117 109.02938,77 108.5,77 c -0.52938,0 -1.48037,-0.803883 -4.17323,-3.527669 z m 23.10209,3.043815 c -0.38229,-0.423089 -0.43719,-1.315094 -0.43719,-7.102743 0,-6.392911 0.019,-6.636097 0.55606,-7.122917 0.51544,-0.467195 1.03596,-0.504028 7.12307,-0.504028 5.9494,0 6.61136,0.04439 7.03872,0.471986 0.42225,0.422481 0.48,1.145482 0.55057,6.893337 0.0762,6.20452 0.0599,6.445444 -0.48147,7.134786 L 141.21832,77 h -6.67613 c -6.13224,0 -6.71176,-0.03942 -7.11333,-0.483854 z M 91.646167,70.861667 c -0.17435,-0.174625 -0.317,-0.805657 -0.317,-1.402292 0,-0.596635 0.14265,-1.227667 0.317,-1.402292 0.453013,-0.453728 7.442311,-0.441892 7.811837,0.01323 0.29056,0.357864 0.25737,2.310897 -0.04767,2.805245 -0.266148,0.431316 -7.332282,0.418674 -7.764165,-0.01389 z m 25.943503,0.01389 c -0.30504,-0.494348 -0.33823,-2.447381 -0.0477,-2.805245 0.36952,-0.455121 7.35882,-0.466957 7.81183,-0.01323 0.17435,0.174625 0.317,0.805657 0.317,1.402292 0,0.596635 -0.14265,1.227667 -0.317,1.402292 -0.43188,0.432564 -7.49801,0.445206 -7.76416,0.01389 z m -10.68595,-10.83 c -0.33854,-0.633568 -0.25213,-7.213576 0.0993,-7.564378 0.12107,-0.120846 0.7947,-0.219721 1.49694,-0.219721 0.70224,0 1.37587,0.09887 1.49694,0.219721 0.35147,0.350802 0.43788,6.93081 0.0993,7.564378 -0.23675,0.443068 -0.54775,0.550276 -1.59628,0.550276 -1.04853,0 -1.35953,-0.107208 -1.59628,-0.550276 z m -4.92458,-9.234275 c -1.05129,-0.436776 -1.13997,-1.0327 -1.13997,-7.660555 0,-6.014616 0.0293,-6.396712 0.52833,-6.89656 0.50016,-0.500945 0.88056,-0.529167 7.1325,-0.529167 6.25194,0 6.63234,0.02822 7.1325,0.529167 0.49945,0.500237 0.52833,0.881944 0.52833,6.982146 0,5.957347 -0.0388,6.500956 -0.50458,7.077605 -0.50226,0.621747 -0.53359,0.624883 -6.80229,0.680877 -3.46374,0.03094 -6.55741,-0.05164 -6.87482,-0.183513 z"
         id="path53" /><path
         style="fill:#c4bbbb"
         d="m 25.055235,157.94689 c -2.804569,-0.50221 -5.224981,-1.95073 -6.078517,-3.63774 -1.603262,-3.16884 -0.405779,-6.74171 2.801273,-8.35802 l 0.849241,-0.428 -0.651116,-0.96099 c -1.106299,-1.63279 -0.701319,-4.15357 0.86563,-5.38807 l 0.657229,-0.5178 -1.345359,-1.47435 c -2.020564,-2.21431 -2.588349,-4.66151 -1.793553,-7.73036 0.489852,-1.89141 1.615818,-3.41176 3.197644,-4.31767 2.168688,-1.242 3.283934,-1.36179 10.447293,-1.12222 l 6.472083,0.21646 0.08219,1.14403 c 0.0452,0.62922 -0.04478,1.29725 -0.199955,1.48453 -0.155178,0.18727 -0.947645,0.40928 -1.761038,0.49337 -0.813394,0.0841 -1.527381,0.20143 -1.586637,0.26078 -0.05926,0.0594 0.09463,0.57268 0.341969,1.14072 0.295914,0.67961 0.453171,1.75669 0.459832,3.14948 0.0089,1.85839 -0.08519,2.29034 -0.770977,3.53993 -1.4939,2.72208 -4.199053,4.07032 -8.166794,4.07032 -1.960841,0 -2.166535,0.0533 -2.850747,0.73859 -0.843548,0.84488 -0.984868,2.0961 -0.301012,2.66512 0.314674,0.26183 1.696328,0.40503 4.953125,0.51335 3.935739,0.13089 4.694823,0.22855 5.901383,0.75923 2.706728,1.19049 3.94621,3.38905 3.695225,6.55449 -0.28092,3.54297 -2.846664,5.97189 -7.325309,6.93466 -2.013074,0.43276 -6.187243,0.57562 -7.893098,0.27016 z m 8.27996,-3.98518 c 1.963095,-0.78421 2.783138,-1.86037 2.783138,-3.65238 0,-2.50991 -0.95579,-2.92653 -6.718887,-2.92869 -3.435554,-0.001 -4.089226,0.0684 -5.06065,0.53939 -2.555765,1.23917 -2.675889,5.07958 -0.192214,6.14514 1.543296,0.66211 1.86001,0.70209 4.839251,0.61088 2.161834,-0.0662 3.121346,-0.22378 4.349362,-0.71434 z M 31.57038,135.74062 c 1.820635,-0.82763 2.618599,-3.27155 1.906485,-5.83899 -1.062663,-3.83131 -7.9194,-3.83131 -8.982064,0 -0.809864,2.91987 0.249889,5.39307 2.619034,6.11217 1.255801,0.38117 3.291622,0.25638 4.456545,-0.27318 z m 84.58148,22.25773 c -0.51345,-0.1092 -1.07811,-0.28803 -1.25479,-0.3974 -0.42719,-0.26443 -0.41985,-2.7183 0.009,-2.99627 0.18162,-0.11773 1.16234,-0.21406 2.17938,-0.21406 3.01062,0 4.0472,-0.87608 5.67753,-4.79849 l 0.83434,-2.00734 -4.51596,-11.28146 c -2.48379,-6.2048 -4.51361,-11.48981 -4.51073,-11.74448 0.005,-0.39865 0.27614,-0.46302 1.95414,-0.46302 1.24731,0 2.04049,0.11906 2.20333,0.33073 0.30769,0.39996 5.13549,12.9932 6.08654,15.87663 0.37228,1.12868 0.74119,1.98772 0.8198,1.90898 0.0786,-0.0787 1.58494,-4.15736 3.34739,-9.0636 l 3.20445,-8.92044 2.02962,-0.0773 c 1.51206,-0.0576 2.06439,0.0134 2.16595,0.27847 0.19451,0.50768 -10.26077,28.03718 -11.21177,29.52139 -1.08882,1.69931 -2.3134,2.82745 -3.76732,3.47062 -1.375,0.60826 -3.83377,0.87849 -5.25087,0.57709 z m 19.71097,-0.0165 c -1.247,-0.25911 -1.74003,-0.8618 -1.73462,-2.12041 0.007,-1.52156 0.25036,-1.70247 2.02368,-1.50152 1.80621,0.20467 3.11455,-0.15573 3.59139,-0.98928 0.241,-0.42129 0.35866,-4.24834 0.45672,-14.85499 l 0.13208,-14.28749 h 1.98125 1.98125 l 0.0684,14.27836 c 0.0602,12.5741 0.0173,14.43235 -0.35945,15.56842 -0.54364,1.63932 -1.66407,2.92006 -3.0353,3.46958 -1.30652,0.52359 -3.70252,0.72884 -5.10537,0.43733 z M 52.543238,147.90717 c -4.287708,-0.91029 -7.359898,-4.13969 -8.245861,-8.66782 -0.402491,-2.05712 -0.200703,-6.29265 0.390411,-8.19469 0.599865,-1.93021 2.419046,-4.483 3.945521,-5.5366 1.870255,-1.29089 3.743213,-1.75994 6.500419,-1.62791 2.800524,0.13411 4.679334,0.95042 6.339612,2.75445 1.820394,1.978 2.460226,3.71487 2.597463,7.05096 0.06438,1.56513 0.07207,2.87093 0.01709,2.90179 -0.05499,0.0309 -3.606787,0.12015 -7.892891,0.19843 l -7.792917,0.14234 0.08048,0.79375 c 0.474578,4.68047 3.385672,7.03717 8.230212,6.66284 1.095493,-0.0847 2.764493,-0.39649 3.708889,-0.69298 2.689338,-0.84431 2.679073,-0.84923 2.587694,1.24004 l -0.07811,1.78594 -1.849167,0.62468 c -2.067168,0.69832 -6.521953,0.99297 -8.538845,0.56478 z m 7.080127,-15.6754 c -0.01194,-1.76912 -1.391244,-3.80999 -2.98327,-4.41415 -1.124375,-0.42668 -3.800878,-0.34428 -4.838686,0.14896 -1.587577,0.75455 -3.267242,3.23507 -3.267242,4.82505 0,0.21413 1.588317,0.30004 5.5475,0.30004 h 5.5475 z M 76.86622,147.7641 c -5.213767,-1.40616 -7.999595,-5.39628 -8.044828,-11.52255 -0.03173,-4.29759 1.017552,-7.3273 3.339464,-9.64239 1.963977,-1.9582 3.437865,-2.57377 6.488311,-2.70982 2.04784,-0.0913 2.78998,-0.013 4.033544,0.4259 2.603835,0.91891 4.497841,2.81747 5.58801,5.60143 0.606491,1.54879 0.891253,5.90968 0.422812,6.47501 -0.286215,0.34541 -1.443694,0.40415 -7.963379,0.40415 -4.646266,0 -7.628487,0.0984 -7.628487,0.25156 0,0.66229 0.635994,3.14312 0.986867,3.84948 0.568209,1.1439 1.629719,2.21312 2.843549,2.86422 1.523766,0.81735 5.559905,0.79403 8.28526,-0.0479 1.069892,-0.3305 2.110048,-0.53758 2.311458,-0.46017 0.250826,0.0964 0.366199,0.59991 0.366199,1.59816 0,1.27083 -0.08638,1.5141 -0.67468,1.90018 -1.876801,1.23167 -7.50218,1.78186 -10.3541,1.0127 z m 7.594613,-15.15358 c 0,-1.0758 -0.825123,-3.15514 -1.512748,-3.81219 -1.005352,-0.96064 -1.933611,-1.26291 -3.878316,-1.26291 -2.9083,0 -5.172206,1.84775 -5.615405,4.58318 l -0.157659,0.97307 h 5.582064 c 5.220241,0 5.582064,-0.0312 5.582064,-0.48115 z m 74.163717,15.29189 c -2.53769,-0.64187 -4.88334,-2.32316 -6.27788,-4.4998 -1.38777,-2.16605 -1.89881,-4.19861 -1.89398,-7.53282 0.008,-5.63848 2.00845,-9.31921 6.07875,-11.18559 1.97465,-0.90545 5.81432,-1.12913 8.12111,-0.47308 4.82774,1.37299 7.53207,5.60644 7.53207,11.79096 0,4.2924 -1.11896,7.22003 -3.64242,9.52997 -1.83289,1.6778 -3.76079,2.40742 -6.68053,2.52826 -1.23498,0.0511 -2.69169,-0.0199 -3.23712,-0.1579 z m 4.75634,-3.74257 c 1.59606,-0.40252 3.25836,-2.04115 3.86503,-3.80999 0.63541,-1.85263 0.82852,-4.99674 0.43516,-7.08477 -0.72841,-3.86654 -2.81875,-5.77635 -6.32234,-5.77635 -3.63607,0 -5.55293,1.59976 -6.33286,5.28523 -0.57244,2.70499 -0.22526,6.59409 0.75981,8.5114 1.34156,2.61116 4.25991,3.71564 7.5952,2.87448 z m 21.85953,3.66349 c -4.83149,-1.24252 -7.59539,-4.70006 -8.18422,-10.23819 -0.4298,-4.04247 0.82271,-8.308 3.18102,-10.8332 1.80077,-1.9282 3.61724,-2.73563 6.46072,-2.87179 3.89981,-0.18675 6.70307,1.03979 8.56502,3.74753 1.2082,1.75701 1.71363,3.39759 1.91953,6.23054 0.143,1.9676 0.10556,2.26271 -0.32725,2.57969 -0.38366,0.28098 -2.1037,0.35792 -8.00101,0.35792 h -7.5123 l 0.17652,1.38907 c 0.25232,1.98563 1.32909,4.05688 2.58137,4.96546 2.02346,1.46809 5.84777,1.6643 9.63051,0.49409 0.9523,-0.29461 1.89831,-0.47152 2.10223,-0.39314 0.25616,0.0985 0.37077,0.59303 0.37077,1.59991 0,1.68445 -0.24687,1.93289 -2.64166,2.65846 -1.91549,0.58035 -6.59791,0.75684 -8.32125,0.31365 z m 7.3148,-15.79 c -0.14249,-1.61201 -1.12137,-3.24286 -2.35068,-3.91635 -2.28802,-1.25351 -5.83832,-0.59475 -7.3265,1.35944 -0.7453,0.97867 -1.55035,3.18003 -1.26682,3.464 0.0888,0.0889 2.60592,0.12957 5.59364,0.0903 l 5.43222,-0.0714 z m -97.474887,15.5575 c -0.239656,-0.24003 -0.317,-4.27242 -0.317,-16.52715 0,-15.75521 0.01432,-16.21732 0.510967,-16.48354 0.281032,-0.15064 1.002097,-0.27389 1.602367,-0.27389 2.260377,0 2.113333,-0.7229 2.113333,10.38966 v 9.84188 l 1.25479,-1.45025 c 0.69014,-0.79764 2.84762,-3.15161 4.79441,-5.23104 l 3.53962,-3.78079 2.1187,0.0762 c 1.26753,0.0456 2.15808,0.19543 2.21672,0.37297 0.0539,0.16321 -1.83853,2.35537 -4.20541,4.87145 -2.36688,2.51608 -4.29666,4.76854 -4.2884,5.00547 0.008,0.23692 2.06714,3.1369 4.5753,6.4444 2.72192,3.5894 4.52477,6.19831 4.4722,6.47174 -0.0748,0.3888 -0.40721,0.45809 -2.1978,0.45809 h -2.10971 l -3.83042,-5.0777 c -2.10673,-2.79274 -3.91409,-5.15857 -4.01636,-5.25741 -0.10227,-0.0988 -0.66692,0.20183 -1.25479,0.66817 L 98.99,138.95697 v 4.15818 c 0,2.88136 -0.09734,4.25568 -0.317,4.47568 -0.17435,0.17463 -0.9827,0.3175 -1.796333,0.3175 -0.813634,0 -1.621984,-0.14287 -1.796334,-0.3175 z m 46.302017,-26.25201 c -1.51523,-0.64905 -1.90448,-2.74268 -0.76262,-4.10185 0.55148,-0.65643 0.88628,-0.81405 1.72909,-0.81405 1.49322,0 2.34201,0.90125 2.34201,2.48676 0,2.00977 -1.57975,3.16965 -3.30848,2.42914 z m -35.78818,-18.95911 c -4.77866,-2.16203 -6.013442,-8.249046 -2.42909,-11.974525 1.63841,-1.702924 2.7557,-2.154044 5.33492,-2.154044 2.57922,0 3.69651,0.45112 5.33492,2.154044 2.85878,2.971339 2.76207,7.608494 -0.21814,10.458985 -1.48458,1.41997 -3.06296,2.05338 -5.11678,2.05338 -1.16033,0 -2.10253,-0.17439 -2.90583,-0.53784 z M 84.574197,96.478422 C 83.064727,95.774433 81.672601,94.256079 81.270343,92.875 81.10845,92.319169 81.03223,89.304593 81.079686,85.334375 l 0.07906,-6.614583 h 1.320833 1.320834 l 0.132083,6.529829 c 0.185013,9.146534 -0.290135,8.674156 8.730708,8.679812 4.481881,0.0028 6.309749,0.09266 6.538125,0.3214 0.17435,0.174625 0.317,0.746125 0.317,1.27 0,0.523875 -0.14265,1.095375 -0.317,1.27 -0.229486,0.229848 -2.107391,0.316787 -6.802291,0.314916 -6.25892,-0.0025 -6.53205,-0.02439 -7.824845,-0.627327 z M 75.663403,76.464651 74.950833,75.90326 v -6.463088 c 0,-6.110311 0.02884,-6.491972 0.528334,-6.992255 0.499495,-0.500283 0.880555,-0.529167 6.981243,-0.529167 h 6.45291 l 0.560508,0.713694 c 0.541043,0.68891 0.557762,0.932077 0.481465,7.002506 -0.07061,5.617583 -0.129339,6.339188 -0.550273,6.760785 -0.420933,0.421598 -1.141402,0.480423 -6.750138,0.551141 -6.060869,0.07642 -6.303654,0.05967 -6.991479,-0.482225 z m 52.447127,0.261097 c -0.32902,-0.13239 -0.71536,-0.549313 -0.85854,-0.926495 -0.14318,-0.377182 -0.26032,-3.340884 -0.26032,-6.586004 0,-5.568462 0.0308,-5.939418 0.5475,-6.597359 l 0.54751,-0.69714 h 6.45291 c 6.10069,0 6.48175,0.02888 6.98124,0.529167 0.4995,0.500283 0.52834,0.881944 0.52834,6.992255 v 6.463088 l -0.69605,0.54837 c -0.65914,0.519304 -1.01269,0.547481 -6.6702,0.531599 -3.2858,-0.0092 -6.24337,-0.12509 -6.57239,-0.257481 z M 104.46765,73.3583 c -2.03319,-2.040921 -3.36432,-3.583628 -3.36432,-3.899057 0,-0.614896 6.78688,-7.540493 7.38946,-7.540493 0.59414,0 7.40388,6.91122 7.40388,7.514212 0,0.298708 -1.39041,1.917549 -3.35508,3.90628 -2.56355,2.59496 -3.51485,3.396175 -4.03235,3.396175 -0.51583,0 -1.47925,-0.805019 -4.04159,-3.377117 z M 91.702319,70.55283 c -0.07931,-0.206992 -0.106551,-0.835354 -0.06055,-1.39636 l 0.08364,-1.020012 h 3.830416 3.830417 v 1.322917 1.322917 l -3.76987,0.07344 c -3.064932,0.05971 -3.796832,0.0031 -3.914061,-0.302906 z m 25.888331,0 c -0.0793,-0.206992 -0.10655,-0.835354 -0.0605,-1.39636 l 0.0836,-1.020012 h 3.83042 3.83041 v 1.322917 1.322917 l -3.76987,0.07344 c -3.06493,0.05971 -3.79683,0.0031 -3.91406,-0.302906 z M 107.10298,60.166747 c -0.33609,-0.33662 -0.21893,-7.107002 0.12902,-7.455497 0.43432,-0.435008 2.19089,-0.400868 2.56436,0.04984 0.20501,0.247406 0.28025,1.521584 0.23047,3.902605 l -0.0739,3.535263 -1.33098,0.07803 c -0.73204,0.04292 -1.41557,-0.0067 -1.51896,-0.110243 z m -5.41253,-9.772375 c -0.57982,-0.406759 -0.58712,-0.493263 -0.58712,-6.960889 0,-5.238422 0.075,-6.65179 0.37496,-7.062601 0.35396,-0.48484 0.74703,-0.51359 7.02171,-0.51359 6.27468,0 6.66775,0.02875 7.02171,0.51359 0.29992,0.410811 0.37496,1.824179 0.37496,7.062601 0,6.467626 -0.007,6.55413 -0.58712,6.960889 -0.49104,0.344482 -1.6053,0.411878 -6.80955,0.411878 -5.20425,0 -6.31851,-0.0674 -6.80955,-0.411878 z"
         id="path52" /><path
         style="fill:#b5acac"
         d="m 24.09875,157.5897 c -3.926563,-0.97449 -5.87745,-3.32293 -5.628139,-6.77506 0.143953,-1.99327 1.084523,-3.45226 2.856608,-4.43111 1.378648,-0.76152 1.573449,-1.10899 0.92426,-1.64862 -0.216894,-0.18029 -0.511671,-0.76417 -0.655058,-1.29751 -0.356669,-1.32666 0.06847,-2.72696 1.213221,-3.99606 l 0.921149,-1.02122 -0.802282,-0.59408 c -1.696577,-1.25632 -2.713009,-3.52657 -2.713009,-6.05965 0,-3.31469 1.476051,-5.71234 4.328826,-7.0316 l 1.667757,-0.77125 6.868334,0.0887 c 4.220555,0.0545 6.99563,0.19451 7.198541,0.36313 0.34559,0.28718 0.440879,1.46496 0.174727,2.15964 -0.09463,0.247 -0.637391,0.46821 -1.386875,0.56525 -0.677266,0.0877 -1.48765,0.21191 -1.800853,0.27606 l -0.569459,0.11662 0.503418,1.32698 c 0.724938,1.91089 0.673229,4.51682 -0.123635,6.2308 -1.279359,2.75178 -4.318076,4.35092 -8.267724,4.35092 -2.242638,0 -2.822423,0.2256 -3.386239,1.31762 -1.112016,2.15379 -0.387507,2.54965 5.016432,2.7409 4.665803,0.16513 5.528551,0.33816 7.301675,1.46441 1.604158,1.01893 2.462169,2.73395 2.465492,4.92811 0.0063,4.16421 -2.888082,6.94771 -8.106454,7.79587 -2.210953,0.35936 -6.360968,0.30806 -8.000713,-0.0989 z m 6.471363,-2.81133 c 2.23639,-0.29062 4.377057,-1.23721 5.113835,-2.26129 0.648172,-0.90093 0.848083,-2.55008 0.43129,-3.5579 -0.616294,-1.49021 -1.444387,-1.70922 -6.468988,-1.71085 -4.017302,-0.001 -4.585413,0.0543 -5.387803,0.52771 -1.380741,0.81457 -1.934045,1.73307 -1.95687,3.24848 -0.03267,2.1691 1.107604,3.31144 3.752788,3.75958 1.698937,0.28784 2.262225,0.28712 4.515748,-0.006 z m 1.342059,-19.0842 c 1.312649,-0.73892 1.828766,-1.85836 1.828251,-3.96541 -7.37e-4,-3.01537 -1.233915,-4.47363 -3.949495,-4.67037 -2.228266,-0.16143 -3.296183,0.10574 -4.331424,1.08364 -1.571064,1.48404 -1.819334,4.71355 -0.50097,6.51666 0.808636,1.10596 2.09408,1.60711 4.123415,1.60757 1.370038,3.1e-4 2.061769,-0.13952 2.830223,-0.57209 z m 83.545438,22.01961 c -0.71276,-0.30722 -0.98235,-1.11577 -0.76281,-2.28782 l 0.16914,-0.90304 h 1.92773 c 2.98194,0 3.95679,-0.62452 5.37776,-3.44514 0.61684,-1.22442 1.19109,-2.59761 1.27611,-3.05154 0.12435,-0.66391 -0.73653,-3.03753 -4.40172,-12.13647 -3.69966,-9.1845 -4.48593,-11.35578 -4.18194,-11.5485 0.2059,-0.13053 1.05516,-0.23916 1.88724,-0.24139 1.28077,-0.003 1.57215,0.0873 1.89928,0.59127 0.42006,0.64715 5.27167,13.23935 6.21837,16.13958 0.32064,0.98226 0.69216,1.78594 0.8256,1.78594 0.13345,0 0.24263,-0.12579 0.24263,-0.27953 0,-0.38838 5.79026,-16.61581 6.25344,-17.5255 0.3626,-0.71214 0.44162,-0.73652 2.14399,-0.66146 1.37536,0.0606 1.78552,0.17254 1.84862,0.5043 0.0822,0.43203 -9.23426,25.42164 -10.40756,27.91634 -0.99549,2.11666 -2.28021,3.61101 -3.83288,4.45831 -1.20027,0.65499 -1.76986,0.78752 -3.66644,0.85314 -1.23498,0.0427 -2.50243,-0.0331 -2.81656,-0.16849 z m 19.72322,-0.0937 c -0.58324,-0.29554 -0.66041,-0.50378 -0.66041,-1.78204 v -1.4474 l 1.88391,0.0922 c 2.07735,0.1017 2.76103,-0.1378 3.46546,-1.214 0.42132,-0.64367 0.474,-1.96189 0.59438,-14.8735 l 0.13208,-14.16723 1.60914,-0.0777 c 1.16069,-0.056 1.69801,0.0296 1.92804,0.30719 0.24259,0.29276 0.30003,3.79386 0.24003,14.62976 -0.0764,13.78952 -0.0965,14.28296 -0.62919,15.43553 -0.67333,1.45677 -2.13563,2.78767 -3.47101,3.15909 -1.36788,0.38046 -4.28947,0.34492 -5.09243,-0.0619 z M 51.396775,147.40064 c -2.001666,-0.64116 -3.133266,-1.37647 -4.553994,-2.95915 -3.585815,-3.99458 -3.611696,-12.60846 -0.05107,-16.997 2.720439,-3.353 7.223347,-4.45512 11.56098,-2.82964 3.612186,1.35362 5.958858,5.56767 5.714477,10.2618 l -0.07925,1.52231 -7.792917,0.13229 -7.792917,0.13229 0.05861,1.20239 c 0.13464,2.76243 1.415006,4.86278 3.62429,5.94539 1.96828,0.9645 5.088641,0.97423 8.336689,0.026 1.234979,-0.36054 2.341374,-0.56156 2.458655,-0.4467 0.117281,0.11486 0.176718,0.84992 0.132083,1.63347 -0.06997,1.22829 -0.17431,1.46916 -0.757081,1.74775 -2.516353,1.2029 -8.063423,1.52413 -10.858549,0.62881 z m 8.361139,-15.43345 c -0.250287,-1.54759 -1.14763,-3.10607 -2.195393,-3.81292 -1.85016,-1.24815 -5.173324,-1.03853 -6.963299,0.43924 -1.025653,0.84677 -2.065055,2.77644 -2.065055,3.83381 v 0.66435 h 5.702803 5.702803 z m 16.974967,15.66854 c -3.817691,-0.95755 -6.594575,-3.9877 -7.477415,-8.15938 -1.365376,-6.45182 1.042901,-12.58109 5.798289,-14.75712 1.378017,-0.63057 1.96198,-0.73988 3.991662,-0.74716 1.643348,-0.006 2.806696,0.14133 3.767423,0.47677 1.94597,0.67945 4.017689,2.64062 4.922384,4.65972 1.117055,2.49306 1.604097,6.5065 0.864214,7.12151 -0.234582,0.195 -2.859526,0.31628 -7.858958,0.36313 l -7.50673,0.0703 0.03283,1.34185 c 0.03601,1.47207 0.854167,3.5915 1.763202,4.56758 1.961114,2.10576 6.381929,2.57922 10.639779,1.13951 1.862864,-0.62989 2.227196,-0.44629 2.221397,1.1194 -0.0054,1.44943 -0.182323,1.67083 -1.865727,2.33432 -1.148909,0.45284 -2.111809,0.57974 -4.866478,0.6414 -1.888792,0.0423 -3.880433,-0.0351 -4.425869,-0.17187 z m 7.727952,-15.51886 c 0,-0.53614 -0.252151,-1.4965 -0.560336,-2.13413 -1.445791,-2.99131 -6.022472,-3.6349 -8.68917,-1.2219 -1.018761,0.92184 -2.288816,3.56185 -1.965556,4.08572 0.08502,0.13779 2.573283,0.24511 5.683153,0.24511 h 5.531909 z m 73.513897,15.40762 c -5.71495,-1.78888 -8.61628,-8.0559 -7.08351,-15.30076 1.01052,-4.77636 4.5548,-7.91476 9.38512,-8.31038 7.46435,-0.61135 12.47435,5.10578 11.78368,13.44687 -0.42927,5.18411 -3.12015,8.93255 -7.27442,10.13337 -1.72789,0.49946 -5.26273,0.51549 -6.81087,0.0309 z m 6.5286,-3.6856 c 1.45364,-0.71283 2.74288,-2.51772 3.14719,-4.40594 0.42457,-1.98282 0.3527,-5.6751 -0.14505,-7.45187 -0.91213,-3.25592 -3.53197,-4.97905 -7.01568,-4.61436 -3.98708,0.41739 -5.83267,3.10795 -5.83267,8.50307 0,2.54441 0.48032,4.68645 1.377,6.14097 1.50167,2.43586 5.47912,3.29441 8.46921,1.82813 z m 19.7012,3.51294 c -3.02218,-1.04097 -5.1185,-3.05723 -6.25662,-6.01772 -0.70192,-1.82582 -0.98579,-6.56298 -0.52605,-8.77864 1.17436,-5.65971 5.42768,-9.05174 10.83638,-8.64204 5.40223,0.40922 8.89911,4.59312 8.68348,10.3895 l -0.078,2.09603 -7.79292,0.13229 -7.79291,0.13229 0.0767,1.05833 c 0.19532,2.69676 1.79959,5.33779 3.73536,6.14936 2.24351,0.94058 5.79716,0.86196 8.86793,-0.19621 0.83323,-0.28713 1.61989,-0.45709 1.74813,-0.37771 0.12825,0.0794 0.23318,0.78941 0.23318,1.57783 0,1.19555 -0.0989,1.49838 -0.59568,1.82441 -1.89431,1.24316 -8.32945,1.61999 -11.13896,0.65228 z m 8.56316,-14.85548 c -0.006,-2.34124 -1.65661,-4.49715 -3.8138,-4.98067 -3.65562,-0.81938 -6.72149,1.12677 -7.43949,4.72244 l -0.17044,0.85355 h 5.7126 5.71261 z m -97.613993,14.82938 c -0.07212,-0.18889 -0.100302,-7.60625 -0.06262,-16.48302 l 0.06851,-16.13958 h 1.717084 1.717083 l 0.06922,9.98802 c 0.03807,5.49341 0.172992,9.98802 0.299827,9.98802 0.126834,0 0.405899,-0.26789 0.620144,-0.59532 0.433115,-0.66191 3.908165,-4.45841 7.144325,-7.8052 l 2.11065,-2.18282 h 1.82059 c 1.38489,0 1.85744,0.0962 1.9746,0.40199 0.10338,0.26985 -1.13676,1.77093 -3.77267,4.56648 -2.15967,2.29048 -4.14622,4.42365 -4.41455,4.74039 -0.4857,0.57332 -0.46641,0.60428 4.31682,6.92907 2.64259,3.49425 4.7274,6.47846 4.63291,6.63158 -0.0952,0.15425 -1.04381,0.27841 -2.12716,0.27841 -1.59743,0 -2.04188,-0.094 -2.42795,-0.51374 -0.25992,-0.28256 -2.01796,-2.59982 -3.90675,-5.14946 -1.88879,-2.54965 -3.61248,-4.63669 -3.83042,-4.63788 -0.21793,-0.001 -0.81231,0.37614 -1.320834,0.83851 l -0.924583,0.84067 -0.132084,4.2448 -0.132083,4.24481 -1.654461,0.0789 c -1.17203,0.0559 -1.692699,-0.0213 -1.785592,-0.26459 z M 140.84841,120.80057 C 140.35493,120.30631 140.2,119.87079 140.2,118.9778 c 0,-1.45988 0.60476,-2.25514 1.86901,-2.45775 1.31154,-0.21019 2.33464,0.67852 2.53915,2.20561 0.13192,0.98512 0.0574,1.20287 -0.65643,1.91782 -1.01898,1.02059 -2.18238,1.07948 -3.10332,0.15709 z M 106.87876,102.7577 c -1.30648,-0.22974 -3.50144,-1.77351 -4.37011,-3.073599 -2.963625,-4.435538 -0.65242,-10.166651 4.57219,-11.337712 4.94474,-1.10833 9.68889,3.643302 8.58231,8.595841 -0.75123,3.36213 -3.27841,5.60871 -6.56215,5.83353 -0.83907,0.0574 -1.83908,0.0493 -2.22224,-0.0181 z M 84.441459,96.322929 c -1.308443,-0.696104 -2.796833,-2.420267 -3.131573,-3.62764 -0.406879,-1.467568 -0.377703,-13.378157 0.03378,-13.790289 0.448825,-0.449533 1.682454,-0.393761 2.173714,0.09827 0.353293,0.35385 0.415119,1.321247 0.415119,6.495431 0,8.899945 -0.452232,8.434628 8.197455,8.434628 7.081077,0 7.215611,0.03289 7.077426,1.730345 l -0.0853,1.04778 -6.868333,0.05683 c -6.302051,0.05215 -6.946161,0.01543 -7.812291,-0.445361 z M 75.595698,76.359993 c -0.483489,-0.353977 -0.512781,-0.7464 -0.512781,-6.86951 0,-5.881468 0.0445,-6.538676 0.471726,-6.966764 0.427315,-0.428176 1.082168,-0.472677 6.95567,-0.472677 6.113509,0 6.505365,0.02934 6.858898,0.51359 0.299327,0.41 0.374956,1.802595 0.374956,6.904306 0,5.855202 -0.04048,6.427407 -0.483093,6.828597 -0.421251,0.381828 -1.294002,0.437882 -6.817843,0.437882 -5.052981,0 -6.438507,-0.07596 -6.847533,-0.375424 z m 28.995242,-3.152245 c -1.91818,-1.940218 -3.48761,-3.683402 -3.48761,-3.873742 0,-0.19034 1.51731,-1.877108 3.3718,-3.748373 2.44655,-2.468675 3.54503,-3.4023 4.00306,-3.4023 0.44867,0 1.47985,0.838553 3.56492,2.898975 1.6135,1.594436 3.15218,3.269513 3.41929,3.722393 l 0.48564,0.823418 -3.5133,3.553649 c -1.93231,1.954507 -3.70294,3.553649 -3.93474,3.553649 -0.2318,0 -1.99088,-1.587451 -3.90906,-3.527669 z m 23.10209,3.043814 c -0.38123,-0.421916 -0.4372,-1.296043 -0.4372,-6.828597 0,-5.062006 0.0758,-6.448576 0.37496,-6.858333 0.35353,-0.484248 0.74539,-0.51359 6.8589,-0.51359 5.8735,0 6.52835,0.0445 6.95567,0.472677 0.42722,0.428088 0.47172,1.085296 0.47172,6.966764 0,6.12311 -0.0293,6.515533 -0.51278,6.86951 -0.40927,0.299638 -1.80082,0.375424 -6.89343,0.375424 -5.84598,0 -6.41729,-0.04054 -6.81784,-0.483855 z M 91.917582,70.604344 c -0.438829,-0.439522 -0.411156,-1.933977 0.0428,-2.31132 0.246269,-0.204708 1.484955,-0.280665 3.764375,-0.230835 l 3.397326,0.07427 v 1.322917 1.322917 l -3.440126,0.07341 c -2.451458,0.05231 -3.533312,-0.01993 -3.764375,-0.251354 z m 25.934438,-0.05881 c -0.0778,-0.202978 -0.10375,-0.828056 -0.0577,-1.389062 l 0.0837,-1.020012 3.39732,-0.07427 c 2.27942,-0.04983 3.51811,0.02613 3.76438,0.230835 0.45045,0.374429 0.48294,1.870478 0.05,2.304059 -0.48599,0.486754 -7.04932,0.440006 -7.23765,-0.05155 z M 107.28085,59.950449 c -0.065,-0.169753 -0.0848,-1.850158 -0.0439,-3.734233 l 0.0743,-3.425591 1.12346,-0.0814 c 1.00356,-0.07271 1.15157,-0.0073 1.38687,0.612536 0.33144,0.873108 0.34556,5.435738 0.0195,6.294722 -0.20434,0.538291 -0.42234,0.642603 -1.34295,0.642603 -0.60446,0 -1.15223,-0.138889 -1.21727,-0.308642 z m -4.85668,-9.324875 c -1.31065,-0.505924 -1.32084,-0.561532 -1.32084,-7.209793 0,-5.228629 0.0672,-6.346228 0.41123,-6.83816 0.40622,-0.580876 0.4913,-0.588038 6.98544,-0.588038 6.49414,0 6.57922,0.0072 6.98544,0.588038 0.34402,0.491932 0.41123,1.609531 0.41123,6.83816 0,6.015773 -0.0208,6.26902 -0.55549,6.754149 -0.50791,0.460861 -1.06787,0.508506 -6.53812,0.556315 -3.29046,0.02876 -6.16096,-0.01655 -6.37889,-0.100671 z"
         id="path51" /><path
         style="fill:#928a8a"
         d="m 25.191824,157.68811 c -4.756896,-0.74693 -7.489848,-3.98303 -6.502334,-7.69946 0.411338,-1.54803 1.337814,-2.71378 2.842586,-3.57671 0.685213,-0.39295 1.288528,-0.74593 1.340701,-0.78442 0.05217,-0.0385 -0.163149,-0.43288 -0.478493,-0.87644 -0.656476,-0.92339 -0.948679,-2.31924 -0.696319,-3.32631 0.0953,-0.38031 0.642906,-1.20176 1.216903,-1.82546 l 1.043631,-1.13399 -1.055717,-0.84973 c -3.659624,-2.9456 -3.376945,-9.49757 0.523343,-12.13012 1.900209,-1.28257 3.024443,-1.41658 10.248667,-1.22166 l 6.670208,0.17997 v 1.13111 c 0,1.26017 -0.02791,1.27913 -2.311458,1.56934 -1.543051,0.19611 -1.662274,0.42325 -0.941319,1.79339 0.621559,1.18124 0.620369,4.18404 -0.0023,5.80032 -0.650999,1.68981 -2.597423,3.41938 -4.535071,4.0298 -0.896574,0.28245 -2.292028,0.46545 -3.518127,0.46135 -2.81252,-0.009 -3.988662,0.76225 -4.00499,2.62758 -0.01371,1.56601 0.30001,1.66927 5.545068,1.82511 4.546558,0.13508 4.725016,0.16173 6.223627,0.92936 2.118772,1.08529 3.027286,2.41136 3.209469,4.68455 0.327011,4.08029 -1.891794,6.75925 -6.6116,7.98275 -1.966759,0.50984 -6.217207,0.72202 -8.206475,0.40967 z m 6.488715,-2.93321 c 1.839704,-0.39055 3.155326,-1.07745 4.008315,-2.09276 0.573697,-0.68288 0.692193,-1.08523 0.685245,-2.32671 -0.01559,-2.78582 -0.93344,-3.22085 -6.795473,-3.22085 -3.808612,0 -4.283691,0.0528 -5.35786,0.59532 -1.356327,0.68503 -2.102225,1.90974 -2.102855,3.45272 -7.46e-4,1.82542 0.978293,3.0203 2.937021,3.58451 1.246216,0.35898 4.95079,0.36332 6.625607,0.008 z m -0.05844,-18.81896 c 1.820527,-0.93171 2.250815,-1.71942 2.250815,-4.12045 0,-3.56328 -1.36845,-4.94153 -4.906376,-4.94153 -2.557123,0 -3.9014,0.76736 -4.612838,2.63317 -0.609811,1.59929 -0.414396,4.01883 0.41929,5.19148 1.277305,1.79664 4.58769,2.39468 6.849109,1.23733 z m 84.624451,21.85175 c -1.134,-0.16271 -1.4541,-0.63188 -1.35665,-1.98845 l 0.0822,-1.14403 1.98125,-0.009 c 3.21339,-0.0146 4.5775,-1.13634 6.06348,-4.98605 l 0.83486,-2.16286 -4.50584,-11.21652 c -2.4782,-6.16909 -4.50583,-11.37489 -4.50583,-11.56844 0,-0.25877 0.48177,-0.3519 1.82048,-0.3519 h 1.82049 l 0.41456,1.03773 c 1.42132,3.55783 5.23913,13.73506 5.83957,15.56668 0.39389,1.20155 0.80727,2.12823 0.91862,2.0593 0.11135,-0.0689 0.93458,-2.24263 1.8294,-4.83045 0.89481,-2.58783 2.36936,-6.7292 3.27676,-9.20306 l 1.64983,-4.49791 1.68894,-0.0798 c 0.92892,-0.0439 1.78673,0.0182 1.90626,0.13787 0.22967,0.23004 -9.24969,25.70628 -10.47322,28.14724 -1.07968,2.154 -2.35014,3.56347 -3.89234,4.31825 -1.39516,0.6828 -3.70625,1.01339 -5.3928,0.77141 z m 19.53806,-0.11637 c -0.97934,-0.23347 -1.13335,-0.37242 -1.27988,-1.15473 -0.33111,-1.76774 -0.0837,-1.97683 2.26666,-1.91573 1.96643,0.0511 2.13447,0.0107 2.82573,-0.67908 l 0.73496,-0.73343 0.13209,-14.34782 0.13208,-14.34782 h 1.71708 1.71709 l 0.0744,13.89062 c 0.0785,14.66159 0.0259,15.46507 -1.12905,17.23201 -1.14775,1.75593 -4.46791,2.70517 -7.19117,2.05598 z M 52.113585,147.50122 C 47.226247,146.2624 44.3075,142.05445 44.3075,136.24719 c 0,-3.97723 0.949391,-6.91424 2.94031,-9.09606 1.872578,-2.05213 3.653482,-2.86653 6.574296,-3.0064 3.893753,-0.18645 6.569586,1.0291 8.417968,3.82405 1.149469,1.73812 1.463781,2.99937 1.474468,5.91664 l 0.0092,2.51354 -7.792917,0.13229 -7.792916,0.13229 0.07954,0.92604 c 0.252342,2.93786 1.638555,5.24491 3.86494,6.43233 1.543887,0.82343 5.859598,0.80969 8.394506,-0.0267 0.974776,-0.32163 1.896057,-0.58478 2.047292,-0.58478 0.407559,0 0.344942,2.78746 -0.07037,3.13268 -1.272715,1.05793 -7.624527,1.64648 -10.340237,0.95812 z m 7.739213,-14.92709 c 0.119459,-0.84796 -0.410959,-2.59749 -1.068201,-3.52335 -1.812041,-2.55263 -7.066054,-2.43962 -9.072528,0.19515 -0.78533,1.03125 -1.55569,3.16755 -1.342699,3.72347 0.130045,0.33943 0.972232,0.38699 5.772071,0.32598 l 5.619809,-0.0714 z m 17.546781,15.07282 c -5.370154,-1.14566 -8.288102,-5.21253 -8.299567,-11.56746 -0.0098,-5.43629 2.046578,-9.38281 5.809774,-11.14986 1.337996,-0.62827 1.797329,-0.70058 4.399797,-0.69269 2.612086,0.008 3.039355,0.0788 4.226667,0.70125 3.396686,1.78067 5.15125,5.05792 5.15125,9.62171 0,0.93872 -0.02972,1.73201 -0.06604,1.76286 -0.03632,0.0309 -3.572854,0.12015 -7.858958,0.19844 l -7.792917,0.14234 0.07548,1.32292 c 0.107089,1.87693 1.413219,4.46119 2.742048,5.4253 2.034537,1.47614 5.813638,1.67939 9.577233,0.5151 1.122867,-0.34736 1.89615,-0.46403 2.050558,-0.30938 0.136339,0.13655 0.21098,0.83044 0.165869,1.54196 l -0.08202,1.29368 -1.849167,0.62307 c -2.05945,0.69392 -6.298133,0.98716 -8.250004,0.57076 z m 7.16718,-15.3703 c -0.01439,-0.52102 -0.10656,-1.26816 -0.20483,-1.66032 -0.260791,-1.04071 -1.902478,-2.73829 -2.998502,-3.10058 -2.092625,-0.69172 -4.928744,-0.17732 -6.377908,1.15677 -1.161413,1.0692 -2.252728,3.96149 -1.702631,4.51246 0.09967,0.0998 2.685204,0.14944 5.745625,0.11024 l 5.564404,-0.0713 z m 73.860741,15.2701 c -3.64694,-1.06861 -6.36326,-3.94576 -7.4022,-7.8405 -0.44863,-1.68181 -0.37229,-6.15971 0.13758,-8.06979 0.81209,-3.04226 2.66726,-5.34482 5.37299,-6.66873 1.37819,-0.67434 1.74381,-0.73199 4.66538,-0.73564 2.88508,-0.004 3.30475,0.0593 4.66918,0.69993 4.03698,1.89545 6.02957,5.55218 6.02957,11.06523 0,5.73306 -2.45113,9.83073 -6.73066,11.25198 -1.76852,0.58734 -5.23124,0.74015 -6.74184,0.29752 z m 5.20205,-3.21063 c 1.69704,-0.50476 3.2505,-2.13035 3.93867,-4.12154 0.67498,-1.95304 0.69381,-6.68383 0.0342,-8.5865 -1.01237,-2.92012 -3.11548,-4.39963 -6.28224,-4.41949 -1.54359,-0.01 -2.1089,0.11819 -3.36461,0.76103 -1.33531,0.68359 -1.60977,0.97012 -2.38079,2.4855 -2.02196,3.97397 -1.1415,11.04866 1.62015,13.01823 1.77585,1.26651 4.05144,1.57163 6.43464,0.86277 z m 21.50642,3.17118 c -3.29235,-0.92758 -5.86525,-3.11822 -6.89268,-5.86861 -1.70636,-4.56784 -1.07161,-10.6099 1.46405,-13.93598 1.82072,-2.38829 4.39099,-3.60688 7.6077,-3.60688 4.37728,0 7.56561,2.12035 8.89812,5.91753 0.68699,1.9577 0.99498,5.54599 0.52474,6.1135 -0.28654,0.3458 -1.44574,0.40439 -8.00054,0.40439 h -7.66544 l 0.14625,1.41924 c 0.33595,3.26022 2.11888,5.61241 4.85885,6.41019 1.87616,0.54628 5.00354,0.36807 7.5917,-0.43259 0.96407,-0.29824 1.86931,-0.47017 2.01165,-0.38206 0.28459,0.17616 0.35216,1.95868 0.0993,2.61873 -0.48049,1.25411 -7.7175,2.16695 -10.64367,1.34254 z m 7.67489,-15.46616 c -0.15641,-2.0469 -1.39131,-3.85714 -3.07961,-4.51442 -0.43588,-0.1697 -1.51108,-0.31157 -2.38934,-0.31528 -1.8168,-0.008 -3.229,0.58687 -4.44872,1.87297 -0.80726,0.85119 -1.78984,3.32391 -1.55961,3.92484 0.11022,0.28768 1.24854,0.3433 5.85225,0.28593 l 5.71542,-0.0712 z M 95.3445,147.32625 c -0.239542,-0.23992 -0.317,-4.21363 -0.317,-16.26257 0,-15.49363 0.01447,-15.95282 0.510967,-16.21895 0.281031,-0.15065 0.883221,-0.2739 1.3382,-0.2739 0.454978,0 1.057168,0.12325 1.3382,0.2739 0.491219,0.2633 0.510966,0.65698 0.510966,10.18645 0,5.45192 0.08916,9.90642 0.198125,9.89891 0.108969,-0.008 0.579931,-0.49114 1.046582,-1.07473 0.46665,-0.58359 2.6064,-2.95865 4.755,-5.2779 l 3.90654,-4.21683 1.91521,-1.1e-4 c 1.35815,-7e-5 1.9141,0.0961 1.91139,0.33063 -0.002,0.1819 -1.90359,2.35479 -4.22554,4.82864 -2.32195,2.47386 -4.22223,4.64762 -4.22285,4.83059 -6.2e-4,0.18296 2.08316,3.08807 4.63061,6.4558 2.54745,3.36772 4.58861,6.25412 4.53591,6.41421 -0.11376,0.34555 -3.19297,0.54155 -3.7322,0.23757 -0.20594,-0.1161 -2.07782,-2.46715 -4.15973,-5.22456 -2.08192,-2.75742 -3.92563,-5.05653 -4.09715,-5.10915 -0.17152,-0.0526 -0.79561,0.34206 -1.386875,0.87708 l -1.075022,0.97275 v 4.01733 c 0,2.77182 -0.09828,4.11578 -0.317,4.33484 -0.17435,0.17462 -0.863825,0.3175 -1.532166,0.3175 -0.668342,0 -1.357817,-0.14288 -1.532167,-0.3175 z m 46.25778,-26.14315 c -0.94666,-0.38229 -1.49206,-1.45585 -1.31197,-2.58249 0.45289,-2.83319 4.13636,-2.46002 4.13636,0.41905 0,1.06141 -0.6625,2.16576 -1.29923,2.16576 -0.13341,0 -0.40088,0.0521 -0.59438,0.11574 -0.19349,0.0637 -0.61235,0.0105 -0.93078,-0.11806 z m -35.87603,-19.01258 c -1.49244,-0.68141 -2.66797,-1.74509 -3.50539,-3.171844 -0.63419,-1.080503 -0.72128,-1.50294 -0.72128,-3.498591 0,-2.063783 0.0724,-2.38702 0.79816,-3.562739 2.74526,-4.447351 8.80676,-4.802558 11.93157,-0.699196 1.09884,1.442946 1.49572,2.932838 1.33183,4.999756 -0.29592,3.732237 -3.24894,6.415054 -7.06114,6.415054 -1.09921,0 -2.09731,-0.1736 -2.77375,-0.48244 z M 84.461328,96.116146 c -0.830853,-0.437855 -1.710746,-1.185589 -2.20954,-1.877671 l -0.828871,-1.150066 v -7.052017 -7.052017 h 1.056666 1.056667 l 0.132083,6.482292 c 0.186352,9.145639 -0.237984,8.73125 8.940837,8.73125 6.463643,0 6.587177,0.025 6.535655,1.322916 -0.05271,1.327771 -0.02747,1.322917 -6.8765,1.322917 H 85.841998 Z M 75.75659,76.219528 C 75.240865,75.702989 75.215,75.375783 75.215,69.36809 c 0,-5.776031 0.04081,-6.345983 0.483092,-6.746875 0.42065,-0.381283 1.284824,-0.437882 6.68576,-0.437882 4.939962,0 6.307057,0.07645 6.71545,0.375547 0.483472,0.354081 0.512781,0.746527 0.512781,6.865937 0,4.967595 -0.08046,6.571092 -0.34292,6.83435 -0.257541,0.258321 -1.91495,0.363732 -6.656951,0.423382 -6.068628,0.07634 -6.335081,0.05834 -6.855622,-0.463021 z m 52.37236,0.248462 c -0.82658,-0.333437 -0.91655,-1.181451 -0.82311,-7.757977 0.0762,-5.360256 0.11902,-5.803472 0.59486,-6.151562 0.40835,-0.29872 1.78538,-0.375118 6.76135,-0.375118 5.71802,0 6.28569,0.04108 6.68576,0.483855 0.38089,0.421546 0.43719,1.290364 0.43719,6.746875 0,5.910243 -0.0298,6.292827 -0.52833,6.792187 -0.49844,0.49922 -0.86845,0.528218 -6.53813,0.512396 -3.30538,-0.0092 -6.2707,-0.122019 -6.58959,-0.250656 z m -23.51938,-3.287014 c -1.81396,-1.840696 -3.24207,-3.507253 -3.24207,-3.783385 0,-0.556885 6.58114,-7.214258 7.13164,-7.214258 0.45938,0 6.81788,6.300433 7.02814,6.963953 0.12709,0.401029 -0.57336,1.250475 -3.23057,3.917799 -2.07915,2.087065 -3.59655,3.405748 -3.91895,3.405748 -0.32334,0 -1.77567,-1.267973 -3.76819,-3.289857 z M 92.040921,70.480933 C 91.940039,70.379892 91.8575,69.837456 91.8575,69.27552 v -1.021703 l 3.632292,0.07361 3.632291,0.07361 v 1.058333 1.058333 l -3.44887,0.07347 c -1.896879,0.04041 -3.53141,-0.0092 -3.632292,-0.110243 z m 25.811959,-0.197741 c -0.0805,-0.210233 -0.10786,-0.719721 -0.0607,-1.132196 l 0.0857,-0.749954 3.64785,-0.07371 3.64785,-0.07371 -0.0816,1.132047 -0.0816,1.132047 -3.50555,0.07386 c -2.86136,0.06029 -3.53245,0.0036 -3.65199,-0.308379 z M 107.36771,59.902728 c -0.33504,-0.335565 -0.21926,-6.578628 0.12846,-6.926895 0.43103,-0.431711 1.66227,-0.401221 2.03651,0.05043 0.20371,0.245844 0.28019,1.453019 0.23047,3.638021 l -0.0744,3.270089 -1.06625,0.0786 c -0.58644,0.04323 -1.15109,-0.0064 -1.25479,-0.110243 z m -5.58509,-9.776835 c -0.35467,-0.35523 -0.41512,-1.354769 -0.41512,-6.864164 0,-6.363647 0.008,-6.453803 0.58711,-6.860268 0.48926,-0.343227 1.58023,-0.411878 6.54539,-0.411878 4.96516,0 6.05613,0.06865 6.54539,0.411878 0.57939,0.406465 0.58711,0.496621 0.58711,6.860268 0,5.509395 -0.0604,6.508934 -0.41512,6.864164 -0.35418,0.354739 -1.34027,0.415774 -6.71738,0.415774 -5.37711,0 -6.3632,-0.06103 -6.71738,-0.415774 z"
         id="path50" /><path
         style="fill:#827c7c"
         d="m 24.495,157.40934 c -1.924591,-0.37333 -3.980398,-1.56888 -4.864676,-2.82904 -1.05881,-1.50888 -1.267717,-3.95075 -0.470806,-5.50314 0.676113,-1.31708 1.761143,-2.34976 3.024024,-2.87813 0.544843,-0.22796 0.990625,-0.48498 0.990625,-0.57116 0,-0.0862 -0.297188,-0.51043 -0.660417,-0.94279 -1.225232,-1.4584 -0.698981,-4.63772 0.910448,-5.50042 0.785769,-0.42119 0.681011,-0.74476 -0.609469,-1.88248 -1.712894,-1.51013 -2.358465,-3.21721 -2.233544,-5.90617 0.11062,-2.38112 0.562037,-3.56788 1.864793,-4.90247 2.054201,-2.1044 3.827221,-2.43665 11.691105,-2.19079 l 6.075834,0.18996 0.08202,0.99265 c 0.07133,0.86338 -0.0083,1.02705 -0.611573,1.25677 -0.381473,0.14527 -1.13163,0.26594 -1.667015,0.26817 -1.640239,0.007 -1.808083,0.27093 -1.148355,1.80693 0.836948,1.9486 0.78963,4.52522 -0.11655,6.34655 -1.27926,2.57119 -3.620747,3.77497 -7.702726,3.96004 -2.692005,0.12205 -2.716362,0.12917 -3.500208,1.02333 -0.466556,0.53222 -0.787685,1.1942 -0.785294,1.61883 0.0093,1.65521 0.787973,1.93251 5.904767,2.10286 5.101359,0.16984 6.514797,0.56814 7.941861,2.23797 2.047298,2.39558 1.718254,6.61095 -0.691896,8.86385 -1.027807,0.96074 -3.274221,1.93785 -5.385325,2.34241 -2.178008,0.41738 -6.137775,0.46481 -8.037619,0.0963 z m 8.088785,-2.74879 c 2.850873,-0.84795 4.180239,-2.41992 3.983377,-4.71033 -0.221268,-2.57435 -1.841948,-3.20924 -7.808136,-3.0588 -3.200354,0.0807 -3.724516,0.16028 -4.68407,0.71112 -0.594253,0.34114 -1.296588,0.98671 -1.560744,1.43459 -0.945826,1.60368 -0.496024,4.21273 0.884794,5.13218 1.711327,1.13954 6.198332,1.37952 9.184779,0.49124 z M 31.876691,136.0242 c 1.627314,-0.81455 1.996226,-1.60097 1.996226,-4.25545 0,-2.53108 -0.27523,-3.195 -1.795898,-4.33214 -0.77709,-0.58109 -3.220213,-0.8785 -4.791448,-0.58327 -1.103368,0.20732 -2.380057,1.22221 -2.977883,2.36724 -0.626541,1.20002 -0.577042,3.78005 0.0975,5.08225 1.162637,2.24443 4.767342,3.07493 7.471499,1.72137 z m 83.707239,21.50952 c -0.51101,-0.15215 -0.86362,-1.42253 -0.61373,-2.21111 0.14765,-0.46593 0.3978,-0.53586 1.93489,-0.54092 2.1471,-0.007 3.66158,-0.62933 4.6315,-1.90297 0.81482,-1.06997 2.2905,-4.53582 2.27259,-5.33751 -0.007,-0.3074 -2.01597,-5.55954 -4.46466,-11.67142 -2.44869,-6.11187 -4.39749,-11.2018 -4.33067,-11.31094 0.0668,-0.10914 0.82355,-0.19843 1.68161,-0.19843 1.21582,0 1.61451,0.10218 1.80659,0.46302 0.46716,0.87758 5.13431,13.16832 5.98243,15.75446 0.46742,1.42529 0.95529,2.60929 1.08415,2.6311 0.12886,0.0218 0.6969,-1.26339 1.26232,-2.85602 3.63846,-10.24851 5.52438,-15.37372 5.76307,-15.66183 0.37491,-0.45252 3.08945,-0.44109 3.26371,0.0138 0.14744,0.38483 -9.43872,25.97879 -10.55247,28.17387 -1.68231,3.31567 -3.61612,4.6134 -7.03109,4.71837 -1.23498,0.038 -2.44559,0.009 -2.69024,-0.0634 z m 19.86107,-0.0597 c -0.58915,-0.17556 -0.66042,-0.33826 -0.66042,-1.50778 v -1.31099 l 1.71709,0.087 c 2.13283,0.10813 3.01045,-0.21494 3.61964,-1.33246 0.43514,-0.79825 0.48601,-2.04628 0.60702,-14.89418 l 0.13209,-14.02291 1.27531,-0.0815 c 0.71364,-0.0456 1.4408,0.0561 1.65104,0.23083 0.52474,0.43618 0.546,25.97191 0.0237,28.46766 -0.64441,3.07925 -2.31482,4.39223 -5.72381,4.499 -1.08969,0.0341 -2.27844,-0.0265 -2.64167,-0.13474 z M 51.415944,147.142 c -3.892538,-1.24736 -6.267908,-4.33785 -6.846371,-8.90749 -0.292633,-2.31171 0.0048,-5.6486 0.674861,-7.57145 1.445268,-4.14737 5.580895,-6.86104 9.880105,-6.483 2.729928,0.24004 4.17336,0.8679 5.848542,2.54395 1.965905,1.96693 2.65887,3.76302 2.711961,7.02911 l 0.03871,2.38125 -7.792917,0.1323 -7.792916,0.13229 0.03758,1.19062 c 0.09565,3.03069 1.411045,5.2235 3.872645,6.45584 1.320214,0.66093 1.832858,0.76679 3.698305,0.76368 1.233164,-0.002 2.904976,-0.20465 3.882723,-0.47052 0.944395,-0.25681 2.051096,-0.52574 2.459335,-0.59761 0.738235,-0.12997 0.741808,-0.1237 0.660416,1.15845 -0.07505,1.18226 -0.159658,1.32726 -1.020679,1.74916 -2.216388,1.08603 -7.651452,1.34608 -10.312295,0.49342 z m 8.611822,-14.05414 c 0.09109,-0.14762 0.02425,-0.95129 -0.148536,-1.78594 -0.869632,-4.20089 -6.240695,-5.75035 -9.555883,-2.75671 -1.221485,1.10301 -2.038973,2.68052 -2.047545,3.95114 l -0.0058,0.8599 h 5.796076 c 3.633912,0 5.857857,-0.10012 5.96169,-0.26839 z m 16.200676,14.0482 c -1.921888,-0.61561 -3.0986,-1.35304 -4.320333,-2.70748 -3.75882,-4.16713 -3.621587,-13.07431 0.26787,-17.38627 0.543298,-0.60231 1.764497,-1.47483 2.731686,-1.95173 1.605186,-0.79147 1.956141,-0.86223 4.26428,-0.85973 2.149747,0.002 2.727965,0.10232 3.980109,0.68822 2.057555,0.96276 3.28349,2.1359 4.209294,4.02805 0.855015,1.74746 1.532172,5.40305 1.226678,6.62215 l -0.172759,0.68942 -7.722842,0.0701 -7.722842,0.0701 0.04333,1.61755 c 0.07533,2.81224 1.856216,5.42853 4.316407,6.3412 1.694284,0.62854 4.959317,0.56907 7.52942,-0.13714 1.137371,-0.31252 2.226381,-0.50734 2.420021,-0.43291 0.212294,0.0816 0.352074,0.55637 0.352074,1.19585 0,0.80854 -0.14154,1.15343 -0.595679,1.45146 -1.820471,1.1947 -8.01173,1.59636 -10.806712,0.70109 z m 8.52455,-14.11054 c 0.147591,-1.74382 -0.561195,-3.61976 -1.768944,-4.68185 -2.548284,-2.24095 -7.258684,-1.48706 -8.968678,1.43543 -0.77944,1.33211 -1.282149,2.92952 -1.043593,3.31612 0.256127,0.41508 11.745938,0.3471 11.781215,-0.0697 z m 72.961218,14.14006 c -2.71267,-0.96744 -4.40392,-2.52521 -5.66745,-5.22016 -1.01438,-2.16352 -1.3694,-4.28192 -1.19557,-7.13396 0.38629,-6.33791 3.69112,-10.08569 9.3589,-10.61328 3.53226,-0.32881 6.5053,0.75803 8.72363,3.18907 2.98215,3.2681 3.78243,9.22919 1.91142,14.23779 -0.79111,2.11779 -2.70184,4.14515 -4.81189,5.10562 -2.19459,0.99894 -6.15673,1.20609 -8.31904,0.43492 z m 6.52496,-2.8751 c 1.31917,-0.53891 2.51388,-1.79549 3.19676,-3.36232 0.45692,-1.04836 0.61736,-2.02147 0.71038,-4.30877 0.15528,-3.81814 -0.46813,-6.1687 -2.05849,-7.76157 -2.4217,-2.42552 -7.41584,-2.40274 -9.69471,0.0442 -2.79077,2.99659 -2.71429,11.06572 0.13334,14.06899 1.78521,1.88277 4.99122,2.43124 7.71272,1.31946 z m 20.80204,3.08092 c -2.58686,-0.64951 -5.53075,-3.03086 -6.45725,-5.22335 -1.61638,-3.82507 -1.51658,-9.42114 0.22912,-12.84841 0.76409,-1.50008 2.63879,-3.41131 4.0275,-4.10596 3.51944,-1.76047 8.25342,-1.23093 10.88482,1.21754 2.00604,1.8666 3.00627,4.5039 3.00627,7.92666 v 1.92879 h -7.62849 c -6.07037,0 -7.68876,0.0727 -7.92356,0.35609 -0.42948,0.51832 0.11344,3.17953 0.97294,4.76895 0.76257,1.41019 1.76145,2.29271 3.36624,2.97415 1.5056,0.63932 5.00999,0.57965 7.58982,-0.12923 1.12417,-0.3089 2.1677,-0.56163 2.31897,-0.56163 0.16536,0 0.24318,0.54428 0.19517,1.36508 l -0.0798,1.36507 -1.45292,0.52084 c -1.65827,0.59445 -7.34108,0.87418 -9.04879,0.44541 z m 7.91142,-15.31997 c -0.21133,-1.78721 -1.05507,-3.32751 -2.26031,-4.12636 -1.99628,-1.32316 -5.38921,-1.10535 -7.29534,0.46832 -1.08694,0.89736 -2.24446,3.07759 -2.24857,4.23526 l -0.003,0.7276 h 5.98055 5.98055 z m -97.596952,-0.87799 0.06807,-16.20573 h 1.452917 1.452916 l 0.06931,9.91192 c 0.03812,5.45156 0.164356,10.00712 0.28052,10.12346 0.116164,0.11635 0.917098,-0.59352 1.779859,-1.5775 0.86275,-0.98397 3.09921,-3.42616 4.96989,-5.4271 l 3.40125,-3.63807 h 1.66837 c 0.91761,0 1.73514,0.1082 1.81674,0.24044 0.0816,0.13224 -1.72423,2.23036 -4.01295,4.66248 -2.28873,2.43212 -4.26176,4.59571 -4.38449,4.80798 -0.16143,0.27913 1.06305,2.08864 4.42479,6.53892 2.55638,3.38414 4.64796,6.29157 4.64796,6.46095 0,0.20484 -0.61761,0.30798 -1.84416,0.30798 H 109.3025 L 105.33,142.0875 c -2.18488,-2.91042 -4.062,-5.29167 -4.17138,-5.29167 -0.10939,0 -0.76095,0.51685 -1.447919,1.14855 l -1.249034,1.14855 v 4.14312 4.14312 h -1.587031 -1.58703 z m 45.686632,-10.5275 c -0.87642,-0.8178 -0.81213,-2.67735 0.1179,-3.41007 0.86777,-0.68367 1.70281,-0.69783 2.51073,-0.0426 0.49453,0.40107 0.62364,0.76198 0.62364,1.74317 0,0.98119 -0.12911,1.3421 -0.62364,1.74317 -0.81078,0.65757 -1.90282,0.64357 -2.62863,-0.0337 z M 106.1282,102.14698 c -2.60994,-0.90231 -4.7607,-3.895832 -4.7607,-6.626147 0,-3.570473 3.56765,-7.14375 7.1325,-7.14375 3.56485,0 7.1325,3.573277 7.1325,7.14375 0,3.666096 -3.56303,7.174367 -7.24649,7.135117 -0.44583,-0.005 -1.46184,-0.23379 -2.25781,-0.50897 z M 84.419103,96.044478 C 83.194868,95.396703 81.98132,93.931254 81.592361,92.630979 81.403359,91.999152 81.290833,89.291274 81.290833,85.374865 v -6.248117 l 0.701304,-0.176293 c 1.498948,-0.376806 1.532023,-0.241229 1.676196,6.870745 l 0.132084,6.51559 0.827346,0.828085 c 1.125335,1.12634 2.119552,1.272495 8.748695,1.286102 L 98.99,94.4625 v 1.058333 1.058334 l -6.802292,-0.01169 c -6.200248,-0.01066 -6.887816,-0.05695 -7.768605,-0.522995 z M 75.796167,76.153333 c -0.450512,-0.451222 -0.450512,-12.936694 0,-13.387916 0.450512,-0.451223 12.916321,-0.451223 13.366833,0 0.450512,0.451222 0.450512,12.936694 0,13.387916 -0.450512,0.451223 -12.916321,0.451223 -13.366833,0 z m 29.206643,-2.791354 c -1.73244,-1.70987 -3.2686,-3.327143 -3.41369,-3.593941 -0.22329,-0.410609 0.25457,-1.009792 3.11237,-3.902604 1.85689,-1.879634 3.56213,-3.417517 3.78942,-3.417517 0.62711,0 6.87742,6.387916 6.87742,7.028834 0,0.598219 -6.28002,6.994082 -6.86741,6.994082 -0.19151,0 -1.76566,-1.398984 -3.49811,-3.108854 z m 22.83419,2.791354 c -0.22902,-0.229378 -0.317,-2.087268 -0.317,-6.693958 0,-4.60669 0.088,-6.46458 0.317,-6.693958 0.45051,-0.451223 12.91632,-0.451223 13.36683,0 0.45052,0.451222 0.45052,12.936694 0,13.387916 -0.45051,0.451223 -12.91632,0.451223 -13.36683,0 z M 92.141414,70.276956 c -0.17715,-0.213788 -0.283782,-0.723328 -0.23696,-1.13231 l 0.08513,-0.743604 3.515778,-0.07393 3.515777,-0.07393 -0.08161,1.132267 -0.08161,1.132267 -3.197207,0.07398 c -2.556072,0.05914 -3.261795,-0.004 -3.519296,-0.31473 z m 26.044696,0.196655 C 118.08925,70.376597 118.01,69.83736 118.01,69.275307 v -1.021916 l 3.50021,0.07383 3.50021,0.07383 0.0851,0.743604 c 0.15376,1.343131 -0.23847,1.505354 -3.6397,1.505354 -1.7015,0 -3.17288,-0.07937 -3.26974,-0.176389 z M 107.5879,59.858688 c -0.0795,-0.07964 -0.14457,-1.672768 -0.14457,-3.540285 v -3.395486 h 1.06434 1.06433 l -0.0737,3.498013 -0.0737,3.498013 -0.84605,0.04227 c -0.46533,0.02325 -0.91111,-0.02289 -0.99063,-0.102527 z m -5.94694,-10.093377 c -0.16576,-0.310216 -0.27346,-2.907865 -0.27346,-6.595685 0,-5.178051 0.0618,-6.145818 0.41512,-6.499686 0.62173,-0.622714 12.81303,-0.622714 13.43476,0 0.35331,0.353868 0.41512,1.321635 0.41512,6.499686 0,3.68782 -0.1077,6.285469 -0.27346,6.595685 -0.25914,0.484964 -0.61844,0.511772 -6.85904,0.511772 -6.2406,0 -6.5999,-0.02681 -6.85904,-0.511772 z"
         id="path49" /><path
         style="fill:#716b6b"
         d="m 25.007982,157.44956 c -0.662255,-0.12233 -1.820293,-0.48792 -2.573417,-0.81241 -4.620095,-1.99065 -5.006622,-7.90821 -0.656024,-10.04344 0.846925,-0.41566 1.370515,-0.84541 1.380131,-1.13277 0.0085,-0.25466 -0.08466,-0.46302 -0.207074,-0.46302 -0.122412,0 -0.437062,-0.39892 -0.699223,-0.88649 -0.780652,-1.45187 -0.446164,-3.15958 0.878796,-4.48663 l 1.071023,-1.07271 -1.414795,-1.36153 c -1.562645,-1.50382 -2.254899,-3.16832 -2.254899,-5.42181 0,-5.31624 4.18641,-8.17142 10.855394,-7.40349 1.221471,0.14065 3.684251,0.25663 5.472844,0.25773 l 3.251988,0.002 -0.08199,0.99219 -0.08199,0.99219 -1.63274,0.26458 c -0.898008,0.14552 -1.706351,0.33998 -1.79632,0.43214 -0.08997,0.0922 0.09276,0.92559 0.406056,1.85208 1.051514,3.10954 0.349862,6.07511 -1.892138,7.9972 -1.473038,1.26286 -3.314209,1.84768 -6.047775,1.921 -1.234979,0.0331 -2.325428,0.0693 -2.423221,0.0805 -0.09779,0.0111 -0.543574,0.38659 -0.990625,0.83435 -0.629764,0.63075 -0.81282,1.04649 -0.81282,1.84598 0,1.73099 0.606573,1.946 5.931222,2.10241 4.281944,0.12579 4.578706,0.16935 6.03579,0.88596 2.036481,1.00156 2.899162,2.28021 3.040723,4.5069 0.143763,2.26132 -0.306512,3.69243 -1.606032,5.10447 -1.257224,1.36607 -2.343151,1.98146 -4.563525,2.58611 -1.833676,0.49935 -6.847349,0.74833 -8.589363,0.42654 z m 8.221866,-2.89897 c 1.447727,-0.54981 2.538113,-1.45485 3.120374,-2.58997 0.388456,-0.75729 0.378498,-2.5241 -0.01915,-3.39822 -0.608995,-1.33871 -1.506979,-1.57075 -6.420654,-1.65915 -4.254753,-0.0765 -4.552512,-0.0488 -5.664119,0.5283 -1.575547,0.8179 -2.192844,1.73423 -2.318987,3.44237 -0.161257,2.18365 0.963506,3.54048 3.492272,4.21281 1.485193,0.39488 6.21341,0.0703 7.810264,-0.53614 z m -2.321586,-18.03525 c 2.362919,-0.65722 3.624668,-2.92224 3.229784,-5.79791 -0.369077,-2.68775 -2.159947,-4.11278 -5.152213,-4.09974 -2.118406,0.009 -3.501995,0.63192 -4.389831,1.97564 -1.248277,1.88925 -1.071339,5.02678 0.374258,6.63645 1.234362,1.37446 3.699554,1.90816 5.938002,1.28556 z m 84.988408,20.94584 c -0.57813,-0.16107 -0.66042,-0.33087 -0.66042,-1.36269 v -1.1787 l 1.84917,-0.0218 c 3.30119,-0.0389 4.69798,-1.3282 6.4619,-5.96444 l 0.54105,-1.42208 -4.4921,-11.18225 c -2.47066,-6.15024 -4.4921,-11.29969 -4.4921,-11.44323 0,-0.14354 0.70906,-0.26098 1.5757,-0.26098 1.23324,0 1.62974,0.10113 1.82433,0.46529 0.47646,0.89167 5.80863,15.02501 6.28773,16.66611 0.26546,0.90931 0.6168,1.65345 0.78076,1.65365 0.16395,2e-4 0.71935,-1.22002 1.23422,-2.71161 0.86108,-2.49457 5.18814,-14.54084 5.60732,-15.61042 0.14647,-0.37373 0.50712,-0.46302 1.87028,-0.46302 0.92885,0 1.68882,0.0459 1.68882,0.10188 0,0.12021 -9.18991,24.50976 -10.02018,26.59303 -0.81721,2.05052 -2.32244,4.20531 -3.46805,4.96463 -1.83096,1.21359 -4.64922,1.7169 -6.58843,1.17664 z m 20.02995,0.0491 c -0.95619,-0.14652 -1.32665,-0.66418 -1.2261,-1.71331 l 0.0841,-0.87718 h 1.86016 c 1.35661,0 2.05981,-0.13091 2.59769,-0.4836 1.47846,-0.96942 1.4859,-1.04982 1.4859,-16.04436 V 124.625 h 1.585 1.585 l -0.001,14.08906 c -9.5e-4,9.1163 -0.1004,14.44587 -0.28175,15.09998 -0.78412,2.82823 -3.82202,4.2887 -7.68849,3.69624 z M 51.974738,147.2196 c -2.978704,-0.80171 -5.562626,-3.08871 -6.634928,-5.8725 -0.812513,-2.10935 -1.005986,-6.88753 -0.377124,-9.31377 1.121495,-4.32688 3.846176,-7.01498 7.748435,-7.64442 4.362942,-0.70373 8.323903,1.22145 9.983603,4.85243 0.705105,1.54258 1.328965,5.26113 1.061636,6.32793 l -0.172759,0.68942 -7.722842,0.0701 -7.722842,0.0701 0.0271,1.5875 c 0.04732,2.77214 1.602255,5.19056 4.064522,6.3216 1.712017,0.78642 5.489572,0.75472 8.160782,-0.0685 1.212375,-0.37362 2.043513,-0.50715 2.197397,-0.35302 0.136123,0.13633 0.209668,0.70921 0.163433,1.27306 -0.06683,0.81497 -0.232549,1.09611 -0.808236,1.37112 -2.212837,1.05711 -7.295086,1.40833 -9.968173,0.68887 z m 8.132324,-14.4385 c 0.11312,-0.98015 -0.362642,-2.6125 -1.073841,-3.68437 -1.595345,-2.40438 -5.919865,-2.83086 -8.587697,-0.84691 -0.866893,0.64467 -1.944017,2.47434 -2.281191,3.87497 -0.351635,1.46069 -0.126283,1.51326 6.151996,1.43496 l 5.709088,-0.0712 z m 16.759158,14.45383 c -3.100124,-0.83611 -5.156976,-2.51467 -6.420568,-5.2397 -1.719044,-3.70726 -1.484556,-9.814 0.504432,-13.1369 0.743313,-1.24181 2.546105,-2.95408 3.773064,-3.5836 2.370494,-1.21625 6.025876,-1.32577 8.579616,-0.25707 1.488468,0.62291 3.397887,2.63682 4.209747,4.44014 0.639484,1.42043 0.745118,1.99854 0.760674,4.16303 l 0.01807,2.51354 -7.700127,0.0701 c -6.511276,0.0593 -7.723299,0.13058 -7.85021,0.46183 -0.08255,0.21545 -0.02407,1.07447 0.129947,1.90894 0.514182,2.78585 1.777244,4.59737 3.900884,5.59474 1.312555,0.61645 1.781901,0.69185 4.122839,0.66227 1.895866,-0.0239 3.126437,-0.19106 4.35875,-0.5919 0.944396,-0.30719 1.80624,-0.56006 1.915209,-0.56194 0.108968,-0.002 0.198125,0.57897 0.198125,1.29078 0,1.2517 -0.03298,1.3074 -1.004407,1.6967 -2.478966,0.99345 -6.93282,1.26035 -9.49604,0.56904 z m 7.850471,-14.00094 c 0.441691,-0.53305 -0.07189,-2.87492 -0.90905,-4.14517 -1.682838,-2.55341 -6.525023,-2.84955 -8.947042,-0.54718 -1.269165,1.20647 -2.383198,4.01699 -1.901609,4.79744 0.11417,0.18503 2.107263,0.28175 5.805505,0.28175 4.61876,0 5.6893,-0.0696 5.952196,-0.38684 z m 73.907859,14.12251 c -2.85145,-0.6731 -5.77502,-3.24412 -6.79558,-5.97611 -0.79581,-2.13035 -1.11676,-5.11023 -0.81076,-7.52754 0.71224,-5.62643 3.54216,-8.75642 8.56051,-9.46823 7.28396,-1.03316 12.18927,3.71737 12.13257,11.74975 -0.032,4.52929 -1.46558,7.75248 -4.32188,9.71692 -2.29039,1.57523 -5.86654,2.18937 -8.76486,1.50521 z m 5.66893,-2.97045 c 0.48743,-0.20398 1.28823,-0.7735 1.77955,-1.2656 3.29391,-3.2991 3.06873,-11.87433 -0.38672,-14.72709 -1.92176,-1.58658 -5.34902,-1.89298 -7.75301,-0.69313 -2.57173,1.28356 -3.55699,3.54221 -3.56372,8.16956 -0.004,2.69639 0.0871,3.40892 0.60406,4.72673 1.18903,3.03122 3.54867,4.51557 6.80228,4.27902 0.89723,-0.0652 2.03014,-0.2855 2.51756,-0.48949 z m 21.18656,2.98502 c -5.61846,-1.11569 -8.72369,-6.46736 -7.83665,-13.50599 0.84023,-6.66716 5.23827,-10.33087 11.37065,-9.47211 4.68585,0.65619 7.46131,4.09852 7.54684,9.36015 l 0.0387,2.38125 -7.7367,0.0702 c -6.57939,0.0597 -7.75938,0.12936 -7.88833,0.46591 -0.0834,0.21766 -0.007,1.16543 0.1706,2.10616 0.988,5.24442 5.50953,7.34323 11.90633,5.52671 2.81804,-0.80025 2.62352,-0.83725 2.62352,0.49907 0,0.67892 -0.15391,1.31701 -0.35874,1.48727 -1.23105,1.0233 -6.9581,1.65294 -9.83622,1.08142 z m 7.5007,-14.17587 c 0.28301,-0.50653 -0.0362,-2.43775 -0.57407,-3.47335 -0.90581,-1.74393 -2.74433,-2.71879 -5.11048,-2.70979 -2.55741,0.01 -4.78855,1.46951 -5.74072,3.756 -0.42367,1.0174 -0.54151,2.36791 -0.23353,2.67638 0.0969,0.097 2.70621,0.17639 5.79854,0.17639 4.89191,0 5.65333,-0.0553 5.86026,-0.42563 z m -97.562429,13.86717 c -0.07239,-0.18957 -0.100777,-7.48841 -0.06309,-16.21966 l 0.06853,-15.875 h 1.452917 1.452916 l 0.06918,10.12031 c 0.05875,8.5948 0.126459,10.12031 0.449165,10.12031 0.208992,0 0.494269,-0.20453 0.633949,-0.45452 0.13968,-0.24999 2.255622,-2.62908 4.702082,-5.28687 l 4.44812,-4.83234 1.78313,-0.005 c 0.98072,-0.003 1.78041,0.0845 1.7771,0.19364 -0.003,0.10914 -1.90531,2.21965 -4.22666,4.69002 -2.32136,2.47038 -4.22065,4.64414 -4.22065,4.83059 0,0.18645 2.08031,3.08916 4.62292,6.45048 2.5426,3.36131 4.62291,6.21794 4.62291,6.34806 0,0.38603 -3.3506,0.28279 -3.7455,-0.11541 -0.192,-0.1936 -2.01333,-2.57359 -4.04741,-5.28887 -2.03409,-2.71529 -3.84959,-4.93814 -4.03445,-4.93968 -0.18486,-0.002 -0.86543,0.48589 -1.512388,1.08317 l -1.17628,1.08597 -0.07261,4.13955 -0.07261,4.13955 -1.389829,0.0801 c -0.958941,0.0553 -1.430633,-0.0268 -1.521443,-0.26458 z m 45.694269,-26.52639 c -1.29857,-1.30061 -0.58277,-3.59107 1.13756,-3.64006 1.2308,-0.035 1.91328,0.68573 1.90831,2.0154 -0.005,1.23295 -0.15635,1.54137 -0.96921,1.9699 -0.86408,0.45554 -1.35936,0.3732 -2.07666,-0.34524 z m -35.66129,-18.76221 c -2.41808,-1.12778 -3.80802,-3.410131 -3.80802,-6.252937 0,-4.025094 2.84476,-6.879166 6.85673,-6.879166 4.01197,0 6.85673,2.854072 6.85673,6.879166 0,4.045213 -2.82168,6.873997 -6.85673,6.873997 -1.24747,0 -2.08128,-0.16986 -3.04871,-0.62106 z M 84.551561,95.913437 C 82.944475,95.11133 81.952353,93.796908 81.559179,91.948958 81.394783,91.176284 81.30791,88.260001 81.350314,84.9375 l 0.0726,-5.688542 0.973214,-0.08108 0.973214,-0.08108 0.08345,6.298786 c 0.123292,9.305736 -0.286174,8.889089 8.920466,9.076911 l 6.484654,0.132292 v 0.926041 0.926042 l -6.477264,0.07063 -6.477263,0.07063 z m -8.610103,-19.72838 c -0.420166,-0.24511 -0.462291,-0.854345 -0.462291,-6.685913 0,-4.637621 0.08787,-6.50424 0.317,-6.733727 0.229136,-0.229498 2.093656,-0.3175 6.726955,-0.3175 6.066973,0 6.424588,0.02738 6.683417,0.511772 0.165761,0.310216 0.273461,2.907865 0.273461,6.595685 0,5.178051 -0.06181,6.145818 -0.415119,6.499686 -0.353994,0.354552 -1.31671,0.414589 -6.538125,0.407728 -3.665359,-0.0048 -6.30856,-0.116292 -6.585298,-0.277731 z M 127.93512,76.05506 C 127.58181,75.701192 127.52,74.733425 127.52,69.555374 c 0,-3.68782 0.1077,-6.285469 0.27346,-6.595685 0.25883,-0.484388 0.61645,-0.511772 6.68342,-0.511772 4.6333,0 6.49782,0.088 6.72695,0.3175 0.22914,0.229498 0.317,2.096959 0.317,6.737566 0,6.076541 -0.0273,6.434721 -0.51096,6.693958 -0.30973,0.166022 -2.90329,0.273892 -6.5853,0.273892 -5.1699,0 -6.13614,-0.06191 -6.48945,-0.415773 z m -23.11237,-3.056714 c -1.7551,-1.764347 -3.19108,-3.407556 -3.19108,-3.651576 0,-0.517866 6.3519,-6.898853 6.86741,-6.898853 0.45863,0 6.554,6.036558 6.76376,6.698502 0.12717,0.401299 -0.54597,1.223956 -3.0981,3.786263 -1.79331,1.800462 -3.46089,3.273568 -3.70574,3.273568 -0.24484,0 -1.88116,-1.443557 -3.63625,-3.207904 z m -12.390472,-2.57858 c -0.210375,-0.133592 -0.31567,-0.580187 -0.264166,-1.120428 l 0.08564,-0.898296 h 3.302083 3.302084 l 0.08564,0.898296 c 0.0515,0.540241 -0.05379,0.986836 -0.264167,1.120428 -0.192392,0.122172 -1.597992,0.222131 -3.123555,0.222131 -1.525562,0 -2.931162,-0.09996 -3.123555,-0.222131 z m 25.888332,0 c -0.21037,-0.133592 -0.31567,-0.580187 -0.26417,-1.120428 l 0.0856,-0.898296 h 3.30209 3.30208 l 0.0856,0.898296 c 0.0515,0.540241 -0.0538,0.986836 -0.26417,1.120428 -0.19239,0.122172 -1.59799,0.222131 -3.12355,0.222131 -1.52557,0 -2.93117,-0.09996 -3.12356,-0.222131 z m -10.81913,-13.99112 0.0739,-3.373438 h 0.92458 0.92458 l 0.0739,3.373438 0.0739,3.373437 H 108.5 107.42755 Z m -5.53961,-6.326791 c -0.25174,-0.101743 -0.3302,-1.697661 -0.3302,-6.716678 0,-6.237853 0.0268,-6.597595 0.51096,-6.857118 0.30807,-0.165134 2.83248,-0.273892 6.35737,-0.273892 3.52489,0 6.0493,0.108758 6.35737,0.273892 0.48414,0.259513 0.51096,0.619194 0.51096,6.850859 0,5.753258 -0.0523,6.597081 -0.41785,6.737566 -0.49799,0.191397 -12.51231,0.177865 -12.98861,-0.01463 z"
         id="path48" /><path
         style="fill:#504b4b"
         d="m 24.03222,157.06945 c -2.063707,-0.52704 -3.744772,-1.67855 -4.490145,-3.0757 -0.530102,-0.99364 -0.619619,-1.48364 -0.54105,-2.96165 0.07988,-1.50271 0.216684,-1.9236 0.902974,-2.77812 0.444855,-0.55391 1.420322,-1.30476 2.167705,-1.66856 1.493313,-0.7269 1.628084,-1.00392 0.837182,-1.7208 -0.291196,-0.26395 -0.654487,-0.945 -0.807312,-1.51344 -0.365713,-1.3603 0.03749,-2.579 1.224138,-3.70004 0.497817,-0.47029 0.905121,-0.98755 0.905121,-1.14945 0,-0.16191 -0.489962,-0.68874 -1.088804,-1.17074 -2.913013,-2.34466 -3.278704,-7.5287 -0.73524,-10.42278 1.142983,-1.30055 2.922904,-2.17718 4.872742,-2.3999 0.720529,-0.0823 3.865865,-0.0599 6.989636,0.0497 l 5.679583,0.19932 0.0821,0.85082 c 0.08993,0.93189 0.01271,0.97325 -2.293464,1.22855 -1.652874,0.18298 -1.796744,0.43653 -1.12936,1.99036 0.731281,1.70259 0.763895,4.46631 0.07074,5.99468 -0.266544,0.58772 -1.035065,1.55385 -1.707824,2.14698 -1.517842,1.33816 -3.515987,1.94382 -6.412914,1.94382 -2.04497,0 -2.136627,0.0273 -2.964072,0.88234 -1.101968,1.13873 -1.34613,2.45748 -0.621046,3.35433 0.512405,0.63379 0.659474,0.6578 5.110046,0.83391 4.609303,0.1824 5.502822,0.32402 7.027775,1.11384 2.625046,1.35961 3.435141,5.60579 1.628163,8.53415 -0.736239,1.19314 -2.592581,2.44072 -4.57561,3.07511 -2.098774,0.67141 -8.084128,0.88603 -10.131068,0.36327 z m 6.266445,-1.76745 c 4.764634,-0.59838 7.101368,-2.71456 6.506195,-5.89211 -0.415024,-2.21576 -2.586895,-2.94817 -8.215277,-2.77042 -2.905694,0.0918 -3.608531,0.19939 -4.567238,0.69934 -1.522156,0.79377 -2.167037,1.90809 -2.167037,3.74452 0,2.89124 1.350755,3.90507 5.948706,4.46491 0.149103,0.0182 1.271696,-0.0926 2.494651,-0.24624 z m 2.23628,-19.40094 c 1.270886,-0.97118 1.734222,-2.09718 1.734222,-4.21449 0,-3.39208 -1.828569,-5.20949 -5.241479,-5.20949 -2.110295,0 -3.74875,0.71394 -4.524828,1.97164 -1.154414,1.87083 -1.141625,4.90029 0.02763,6.54495 0.930861,1.30933 2.38421,1.82939 4.872469,1.74352 1.884549,-0.065 2.250927,-0.16284 3.131987,-0.83613 z m 83.008855,21.21066 c -0.32592,-0.24593 -0.45587,-0.62197 -0.39625,-1.14664 0.0877,-0.77178 0.11136,-0.7824 2.06995,-0.92909 2.27711,-0.17054 3.32977,-0.64114 4.43322,-1.98192 0.75651,-0.91923 2.43511,-4.76504 2.43511,-5.57904 0,-0.21971 -2.0087,-5.38366 -4.46379,-11.47544 -2.45509,-6.09179 -4.39671,-11.14316 -4.31472,-11.22528 0.082,-0.0821 0.77016,-0.14931 1.52927,-0.14931 1.37701,0 1.38126,0.003 1.83066,1.12448 1.55611,3.88464 5.46429,14.40402 5.95212,16.02093 0.41901,1.3888 0.69424,1.90944 0.97906,1.85208 0.25391,-0.0511 0.99139,-1.7901 2.05356,-4.84228 0.91156,-2.61938 2.41506,-6.8461 3.34111,-9.39271 l 1.68373,-4.63021 1.51617,-0.0793 c 0.87637,-0.0459 1.51617,0.031 1.51617,0.1822 0,0.49251 -9.8319,26.35282 -10.59413,27.86518 -0.97817,1.94079 -2.15454,3.27233 -3.51378,3.97724 -1.37751,0.7144 -5.30169,0.97946 -6.05746,0.40916 z m 19.83516,0.0497 c -0.30597,-0.18766 -0.46231,-0.61461 -0.46235,-1.26258 l -6e-5,-0.97904 h 2.09139 c 1.83665,0 2.17268,-0.0764 2.75876,-0.62727 0.40297,-0.37877 0.77799,-1.14389 0.94659,-1.93126 0.17509,-0.81771 0.27921,-6.23755 0.27921,-14.53394 v -13.22997 l 1.38687,0.08 1.38688,0.08 0.0685,13.35444 c 0.0421,8.20535 -0.0347,13.91388 -0.19929,14.8054 -0.34031,1.84382 -1.26026,3.23868 -2.55336,3.8715 -1.17693,0.57596 -4.96787,0.82376 -5.70316,0.37278 z M 51.40374,146.88863 c -3.790862,-1.25263 -5.979359,-4.15493 -6.596522,-8.74805 -0.340284,-2.53249 -0.024,-5.50397 0.828854,-7.78702 0.735175,-1.96803 2.748249,-4.16304 4.697047,-5.12154 1.30747,-0.64308 1.812608,-0.73931 3.880631,-0.73931 3.216977,0 4.839418,0.57921 6.621126,2.36372 1.721688,1.72441 2.479108,3.65123 2.68504,6.83055 l 0.149955,2.3151 h -7.453136 c -4.903877,0 -7.63838,0.0993 -7.994727,0.29031 -0.475725,0.255 -0.520337,0.45079 -0.366824,1.60986 0.422736,3.19176 1.923392,5.43597 4.377316,6.54621 1.633632,0.73912 5.23753,0.74842 7.860924,0.0203 1.048605,-0.29104 2.03377,-0.52917 2.189254,-0.52917 0.169027,0 0.250037,0.44942 0.201469,1.11768 -0.07806,1.0741 -0.132736,1.13762 -1.402064,1.62899 -1.968386,0.76199 -7.626734,0.88031 -9.678343,0.20238 z m 8.876065,-13.76611 c 0.220809,-0.6968 -0.310075,-2.88729 -0.951807,-3.92728 -1.778297,-2.88188 -6.816592,-3.19983 -9.417982,-0.59434 -1.358951,1.3611 -2.371493,4.19911 -1.728072,4.84354 0.09686,0.097 2.822976,0.17639 6.058032,0.17639 5.528504,0 5.891409,-0.0299 6.039829,-0.49831 z M 76.347229,147.01 c -4.487316,-1.46378 -6.937456,-5.30592 -6.935404,-10.87563 0.0019,-5.26333 2.085813,-9.21783 5.764089,-10.93833 1.282009,-0.59965 1.845998,-0.69826 4.007141,-0.7006 2.316583,-0.003 2.655534,0.0665 4.293571,0.87417 3.044975,1.5014 4.653224,4.32479 4.758529,8.35392 l 0.05609,2.14626 -7.792917,0.14234 c -4.286104,0.0783 -7.839145,0.16759 -7.895648,0.19844 -0.0565,0.0309 -0.03692,0.78306 0.04352,1.67156 0.185788,2.05213 1.444145,4.68257 2.698456,5.64079 0.505221,0.38596 1.410923,0.87573 2.012672,1.08837 1.571771,0.55543 5.031731,0.48967 7.499747,-0.14254 1.13617,-0.29104 2.172458,-0.52917 2.302863,-0.52917 0.130404,0 0.200545,0.50296 0.155868,1.11768 -0.07805,1.07394 -0.13293,1.13774 -1.402064,1.63001 -1.729143,0.67071 -7.865205,0.87771 -9.566521,0.32273 z m 8.597734,-14.4475 c 0.185718,-1.95703 -1.10792,-4.2357 -2.966885,-5.226 -1.165572,-0.62092 -4.476831,-0.59512 -5.706411,0.0445 -1.788027,0.93007 -2.9786,2.52169 -3.45463,4.61833 -0.380507,1.67592 -0.525745,1.63853 6.060391,1.56029 l 5.979655,-0.071 z m 72.590827,14.28808 c -4.01902,-1.57217 -6.16154,-4.89216 -6.44184,-9.98206 -0.23768,-4.31591 0.81651,-7.62745 3.15417,-9.90826 1.87597,-1.83034 3.62878,-2.43667 7.08521,-2.45092 2.50853,-0.0103 2.93123,0.0612 4.42065,0.74785 1.96057,0.90388 3.795,2.7517 4.69975,4.73407 1.83331,4.01689 1.32301,10.70598 -1.05495,13.82857 -1.04724,1.37516 -2.96431,2.67258 -4.64861,3.14605 -2.06137,0.57945 -5.5822,0.52319 -7.21438,-0.1153 z m 6.64582,-2.26295 c 2.03265,-0.84913 3.42167,-2.73045 4.0253,-5.45195 0.4282,-1.93063 0.20261,-6.26609 -0.41684,-8.01053 -1.02808,-2.89522 -3.98903,-4.63424 -7.30028,-4.2876 -2.67967,0.28053 -4.40937,1.52914 -5.54834,4.00516 -0.54339,1.18131 -0.60853,1.71942 -0.60853,5.02708 0,3.44029 0.0489,3.80784 0.68719,5.15938 1.32978,2.81591 3.12547,3.95348 6.25567,3.96294 1.15225,0.003 2.31755,-0.15873 2.90583,-0.40448 z m 20.53047,2.43549 c -2.95689,-0.98088 -5.18842,-3.00665 -6.25257,-5.67602 -0.52884,-1.32657 -0.60138,-1.97137 -0.60138,-5.34502 0,-3.36333 0.0735,-4.02064 0.59577,-5.32998 1.7202,-4.31234 5.3316,-6.61042 9.79874,-6.23532 5.08945,0.42736 8.21486,4.0831 8.21486,9.6088 v 1.9565 h -7.50988 c -8.48176,0 -8.4949,0.003 -8.19317,1.81195 0.50898,3.05161 1.74058,5.13143 3.73022,6.29928 1.08724,0.63817 1.60105,0.75208 3.78942,0.84011 1.83305,0.0737 3.00162,-0.024 4.23482,-0.35437 3.13457,-0.83963 2.89192,-0.88075 2.89192,0.49006 v 1.21122 l -1.38687,0.44122 c -1.85683,0.59072 -7.83502,0.77149 -9.31188,0.28157 z m 8.42116,-14.86769 c -0.0618,-2.56063 -1.64527,-4.53556 -4.14014,-5.16364 -3.66857,-0.92357 -7.28803,1.3899 -7.98348,5.10283 -0.0992,0.52949 -0.10072,1.09171 -0.003,1.24938 0.12074,0.19566 2.07897,0.26411 6.16806,0.21561 l 5.99117,-0.0711 z m -97.599421,14.849 c -0.06054,-0.0606 -0.07852,-7.26386 -0.03995,-16.00729 L 95.563986,115.1 h 1.313618 1.313618 l 0.06918,10.12031 c 0.06307,9.22663 0.107918,10.12031 0.507855,10.12031 0.241272,0 0.816049,-0.47624 1.277283,-1.05833 0.46124,-0.58208 2.63327,-2.9931 4.82675,-5.35781 l 3.98814,-4.29948 h 1.53687 c 0.84528,0 1.53687,0.10309 1.53687,0.22908 0,0.126 -1.27306,1.58451 -2.82903,3.24115 -5.08898,5.41824 -5.62431,6.01272 -5.62431,6.24579 0,0.12667 2.07542,2.96325 4.61204,6.3035 2.53662,3.34025 4.61693,6.16249 4.62292,6.27163 0.006,0.10914 -0.74554,0.19843 -1.67005,0.19843 h -1.68093 l -3.93261,-5.21239 c -2.16294,-2.86682 -4.05385,-5.24886 -4.20203,-5.29342 -0.14818,-0.0446 -0.86143,0.44046 -1.585,1.07783 l -1.315588,1.15884 -0.08464,4.13457 -0.08464,4.13457 h -1.25821 c -0.692016,0 -1.307741,-0.0496 -1.36828,-0.11015 z m 45.615201,-26.58572 c -0.71397,-0.79018 -0.4812,-2.68053 0.39012,-3.16815 1.3302,-0.74443 2.62336,0.22318 2.62336,1.96293 0,1.45187 -2.04986,2.27169 -3.01348,1.20522 z m -34.51361,-18.25373 c -2.79778,-0.91598 -5.00374,-3.770015 -5.00374,-6.473758 0,-3.691549 3.27168,-7.049555 6.86833,-7.049555 3.59665,0 6.86833,3.358006 6.86833,7.049555 0,2.249508 -1.76068,4.947188 -3.95056,6.052988 -1.02484,0.5175 -3.7536,0.75758 -4.78236,0.42077 z M 84.046796,95.454688 c -2.260916,-1.535366 -2.359713,-1.93693 -2.359713,-9.591146 v -6.614584 h 0.7925 0.7925 l 0.132084,6.482292 c 0.141803,6.959345 0.176051,7.131133 1.62683,8.160187 0.521697,0.370046 1.632314,0.459492 7.09067,0.571063 l 6.472083,0.132292 0.08278,0.859896 0.08278,0.859895 H 92.036175 85.313043 Z M 75.755084,75.699074 c -0.167866,-0.314155 -0.275917,-2.802665 -0.275917,-6.354597 0,-5.485449 0.03192,-5.870202 0.528333,-6.367394 0.495469,-0.49625 0.880556,-0.529166 6.19072,-0.529166 3.114312,0 5.969393,0.116908 6.344625,0.259796 l 0.682239,0.259796 -0.07067,6.553224 -0.07067,6.553225 -6.526375,0.07074 c -6.240478,0.06764 -6.538461,0.04812 -6.802291,-0.445627 z m 29.380586,-2.469387 c -1.66048,-1.637109 -3.13751,-3.194595 -3.28231,-3.461081 -0.22247,-0.409451 0.23923,-0.993594 2.98003,-3.770312 1.78381,-1.807187 3.42955,-3.285794 3.65721,-3.285794 0.62705,0 6.61357,6.123519 6.61357,6.764924 0,0.597027 -6.01729,6.728826 -6.60317,6.728826 -0.19046,0 -1.70486,-1.339453 -3.36533,-2.976563 z m 22.82461,2.800174 c -0.0969,-0.09701 -0.17611,-3.076523 -0.17611,-6.621132 v -6.444743 l 0.67761,-0.258035 c 0.37269,-0.141919 3.22569,-0.258034 6.34,-0.258034 5.31016,0 5.69525,0.03292 6.19072,0.529166 0.49641,0.497192 0.52833,0.881945 0.52833,6.367394 0,3.518464 -0.10865,6.041576 -0.27346,6.35 -0.25884,0.484419 -0.61654,0.511773 -6.69222,0.511773 -3.53032,0 -6.49801,-0.07937 -6.59487,-0.176389 z M 92.223118,70.003997 c -0.08037,-0.209781 -0.104915,-0.596734 -0.05454,-0.859896 0.08147,-0.425534 0.4493,-0.486696 3.324425,-0.552765 l 3.232825,-0.07429 v 0.934185 0.934186 h -3.17829 c -2.524219,0 -3.208365,-0.07849 -3.324425,-0.38142 z m 26.051052,-0.544622 v -0.942329 l 3.23604,0.07429 3.23604,0.07429 v 0.79375 0.79375 l -3.23604,0.07429 -3.23604,0.07429 z M 107.7075,56.433931 v -3.279958 l 0.85854,0.08291 0.85854,0.08291 0.0772,2.645833 c 0.10008,3.428696 0.0152,3.748264 -0.99579,3.748264 h -0.79852 z m -5.66071,-6.572621 c -0.35356,-0.354111 -0.41512,-1.32727 -0.41512,-6.561667 0,-4.427361 0.0886,-6.234673 0.317,-6.463393 0.45025,-0.450961 12.65241,-0.450961 13.10266,0 0.22836,0.22872 0.317,2.036032 0.317,6.463393 0,5.234397 -0.0616,6.207556 -0.41512,6.561667 -0.35316,0.353722 -1.31625,0.415773 -6.45321,0.415773 -5.13696,0 -6.10005,-0.06205 -6.45321,-0.415773 z"
         id="path47" /><path
         style="fill:#413d3d"
         d="m 23.604739,156.73618 c -2.970581,-0.91372 -4.445906,-2.69476 -4.445906,-5.36719 0,-2.38717 0.928181,-3.73568 3.292166,-4.78303 1.267152,-0.56141 1.683456,-1.36541 0.869063,-1.67842 -0.69087,-0.26552 -1.271315,-1.76777 -1.119904,-2.8984 0.102127,-0.76262 0.435909,-1.35186 1.217766,-2.14977 1.181347,-1.2056 1.357124,-1.88052 0.556084,-2.13516 -0.893627,-0.28407 -2.38221,-2.29308 -2.822145,-3.80879 -0.772953,-2.66306 0.01044,-5.7498 1.875505,-7.38991 1.990853,-1.75073 3.040062,-1.92244 10.51534,-1.72093 l 6.273959,0.16914 v 0.75168 c 0,0.67107 -0.09208,0.752 -0.858542,0.7546 -1.484148,0.005 -2.880499,0.32464 -3.021046,0.69147 -0.07441,0.19421 0.140207,0.92109 0.476918,1.6153 0.817354,1.68516 0.83074,4.47527 0.02899,6.04274 -1.329266,2.5988 -3.771871,3.81841 -7.647414,3.81841 -2.191411,0 -2.215318,0.007 -3.24043,0.99218 -0.601474,0.57787 -1.050665,1.26841 -1.075678,1.65365 -0.165258,2.54523 0.225137,2.73747 5.947026,2.92835 3.92977,0.13109 4.680441,0.22821 5.896063,0.76281 2.40329,1.0569 3.433294,2.95958 3.14224,5.80451 -0.304383,2.97523 -2.560912,5.1235 -6.268951,5.96821 -2.355485,0.53659 -7.816574,0.52437 -9.591105,-0.0215 z m 9.922033,-1.92189 c 2.614012,-1.01225 3.997189,-3.30247 3.380309,-5.597 -0.607324,-2.25898 -1.672763,-2.63059 -7.524998,-2.62459 -3.551704,0.004 -4.39958,0.083 -5.309467,0.49686 -1.515254,0.68923 -2.299755,1.89387 -2.432765,3.73561 -0.16923,2.34326 0.627005,3.48857 3.055673,4.39528 1.564204,0.58398 6.909149,0.33815 8.831248,-0.40616 z m -1.746425,-18.25561 c 2.016333,-0.91722 2.904982,-2.73762 2.683775,-5.49773 -0.260687,-3.25274 -1.960598,-4.71616 -5.478289,-4.71616 -3.517691,0 -5.217602,1.46342 -5.478289,4.71616 -0.31038,3.87278 1.624699,5.98785 5.478289,5.98785 1.107611,0 2.099514,-0.17397 2.794514,-0.49012 z m 83.690893,20.23244 c -0.0796,-0.2077 -0.10557,-0.65065 -0.0578,-0.98432 0.0783,-0.54615 0.2092,-0.59907 1.31219,-0.53025 3.49298,0.21793 5.50944,-1.59075 7.23212,-6.48689 l 0.48119,-1.36764 -4.18753,-10.40632 c -2.30315,-5.72348 -4.34564,-10.79328 -4.53887,-11.26622 l -0.35134,-0.8599 1.39042,0.001 1.39042,0.001 2.8526,7.47319 c 1.56892,4.11026 3.09969,8.30663 3.4017,9.32527 0.58557,1.97504 1.10799,2.79391 1.51196,2.36992 0.13271,-0.13929 0.59777,-1.32481 1.03346,-2.6345 0.67025,-2.01476 5.18016,-14.65046 5.7369,-16.07344 0.13898,-0.3552 0.4893,-0.46302 1.50454,-0.46302 1.1326,0 1.30508,0.0667 1.19647,0.46302 -0.33539,1.22363 -9.59219,25.53415 -10.25095,26.92136 -1.70473,3.58985 -3.64826,4.88786 -7.32518,4.89221 -1.65313,0.002 -2.22301,-0.0897 -2.33234,-0.37505 z m 19.8857,0.20124 c -0.0969,-0.097 -0.17611,-0.5743 -0.17611,-1.06064 v -0.88426 l 1.3916,0.16381 c 1.77544,0.209 3.15659,-0.33576 3.88496,-1.53233 0.51691,-0.84916 0.53317,-1.30057 0.53412,-14.83259 l 9.9e-4,-13.95677 h 1.32958 1.32959 l -0.0748,14.22885 -0.0748,14.22885 -0.6669,1.29752 c -0.96124,1.87021 -2.29317,2.52395 -5.14228,2.52395 -1.18792,0 -2.23909,-0.0794 -2.33596,-0.17639 z m -82.549536,-9.8963 c -2.712873,-0.53471 -5.145582,-2.25345 -6.532484,-4.61527 -1.816154,-3.09281 -1.871743,-9.38616 -0.113399,-12.83824 0.860098,-1.68859 2.748274,-3.56013 4.297426,-4.25956 1.148822,-0.51869 1.81553,-0.62217 4.01897,-0.62377 2.358467,-0.002 2.802569,0.0772 4.142557,0.73628 2.935647,1.44389 4.441647,4.04656 4.649998,8.03613 l 0.129018,2.47045 h -7.81111 c -8.970303,0 -8.405254,-0.18619 -7.833903,2.58146 0.694815,3.36572 2.457495,5.51287 5.175389,6.30423 1.89796,0.55262 5.263105,0.38907 7.689926,-0.37374 l 1.651041,-0.51896 v 1.03714 c 0,1.21186 -0.270027,1.36889 -3.391363,1.97225 -2.117331,0.40929 -4.293725,0.44212 -6.072066,0.0916 z m 7.57991,-13.78677 c 0.540089,-1.46231 -0.736496,-4.61049 -2.282324,-5.62844 -2.184951,-1.43882 -4.89951,-1.45758 -7.246613,-0.0501 -1.122518,0.67314 -1.549424,1.14869 -2.250972,2.50745 -0.80118,1.55173 -1.10984,3.14993 -0.689627,3.57081 0.09686,0.097 2.894254,0.17639 6.216429,0.17639 5.963186,0 6.043035,-0.007 6.253107,-0.57613 z m 17.251757,13.8044 c -0.628199,-0.13351 -1.762936,-0.52739 -2.521638,-0.87529 -3.670711,-1.68316 -5.443662,-5.01703 -5.443662,-10.23632 0,-6.79806 3.233299,-10.97946 8.751771,-11.31806 3.695179,-0.22673 6.233851,0.87407 7.964105,3.45331 1.228842,1.83181 1.582938,3.0642 1.612691,5.6128 l 0.02475,2.11966 -7.792916,0.13229 -7.792917,0.13229 0.06513,1.67956 c 0.112633,2.90479 1.467111,5.24419 3.759976,6.49409 1.095827,0.59737 1.821206,0.77779 3.531974,0.87852 2.003122,0.11794 2.716965,0.0215 6.727787,-0.9089 0.569083,-0.13201 0.606424,-0.0697 0.528334,0.88192 -0.08357,1.0184 -0.09337,1.02656 -1.801113,1.5011 -2.020224,0.56137 -5.992524,0.79772 -7.614262,0.45303 z m 7.196407,-13.38887 c 0.534306,-0.20536 0.542517,-1.43958 0.02127,-3.19758 -1.44261,-4.86545 -8.679721,-5.3455 -11.366317,-0.75394 -0.71876,1.2284 -1.107333,2.96938 -0.8264,3.70263 0.135008,0.35238 0.965483,0.40949 5.955238,0.40949 3.189094,0 5.986387,-0.0723 6.216208,-0.1606 z m 74.214152,13.39601 c -1.2903,-0.27545 -3.37258,-1.31357 -4.36087,-2.17413 -2.23093,-1.94259 -3.39376,-4.99785 -3.39376,-8.9169 0,-7.09336 3.18278,-10.99618 9.25002,-11.34266 6.74921,-0.38543 10.82665,3.8759 10.82665,11.31494 0,5.29992 -2.18235,9.15107 -5.99537,10.57996 -1.65888,0.62164 -4.71811,0.88217 -6.32667,0.53879 z m 4.60917,-2.1707 c 1.64778,-0.41557 3.73536,-2.47144 4.38672,-4.32008 1.03974,-2.9509 0.8028,-7.87183 -0.50268,-10.43998 -1.17439,-2.3103 -3.31548,-3.53568 -6.20951,-3.5538 -2.15502,-0.0135 -3.48033,0.43868 -4.80866,1.64064 -1.97191,1.78431 -2.75445,4.4493 -2.52282,8.59161 0.30212,5.403 2.73754,8.30934 7.01638,8.37309 0.77109,0.0115 1.95934,-0.11968 2.64057,-0.29148 z m 21.97787,2.08661 c -3.1885,-0.73334 -5.4921,-2.54309 -6.74598,-5.29977 -0.86212,-1.89538 -1.2331,-5.17472 -0.89571,-7.9177 0.48354,-3.93109 2.35608,-6.91699 5.22178,-8.32649 1.35124,-0.66462 1.76259,-0.73479 4.26907,-0.72821 2.47795,0.006 2.9164,0.0819 4.11135,0.70705 1.56832,0.82048 3.14854,2.47939 3.82529,4.01579 0.58349,1.32467 1.11626,4.24801 0.99884,5.48068 l -0.0859,0.9017 -7.79292,0.13229 -7.79292,0.13229 0.0416,1.79945 c 0.0759,3.28099 2.07431,6.08306 4.9479,6.93777 2.21917,0.66006 4.2809,0.52589 9.07734,-0.59074 0.53134,-0.1237 0.59437,-0.038 0.59437,0.80788 0,0.93727 -0.0169,0.9515 -1.78153,1.49738 -2.223,0.6877 -6.02889,0.90228 -7.99263,0.45063 z m 7.65325,-13.53905 c 0.36946,-0.44588 0.1676,-2.12208 -0.43083,-3.57741 -1.02542,-2.49373 -3.83317,-3.80094 -6.82698,-3.17845 -2.53718,0.52755 -4.53988,2.47779 -5.14689,5.01207 -0.51976,2.17003 -0.63188,2.13152 6.20436,2.13152 4.84189,0 5.93574,-0.0684 6.20034,-0.38773 z m -97.545545,13.45295 c -0.103698,-0.10386 -0.188542,-7.25321 -0.188542,-15.88745 v -15.69861 h 1.320834 1.320833 v 10.18646 c 0,9.52539 0.03,10.18639 0.462292,10.18544 0.25426,-5.6e-4 0.907004,-0.55144 1.450538,-1.22418 0.54354,-0.67274 2.74273,-3.11301 4.88709,-5.42281 l 3.89883,-4.19965 1.41301,-1.3e-4 1.41302,-1.3e-4 -1.37416,1.58872 c -0.75579,0.87379 -1.47588,1.65168 -1.60021,1.72864 -0.12432,0.077 -1.42355,1.44625 -2.88719,3.04289 -2.44866,2.67118 -2.63606,2.95039 -2.347,3.49688 0.17278,0.32665 2.25694,3.16189 4.63146,6.30053 2.37453,3.13864 4.31732,5.78778 4.31732,5.88698 0,0.0992 -0.60005,0.18036 -1.33345,0.18036 -1.61644,0 -1.36543,0.25059 -5.93113,-5.92125 -2.52942,-3.41922 -3.58096,-4.64486 -3.99135,-4.65217 -0.30645,-0.005 -1.10588,0.47383 -1.776504,1.06507 l -1.219319,1.07498 -0.07267,4.15054 -0.07267,4.15054 -1.066251,0.0786 c -0.586437,0.0432 -1.151093,-0.006 -1.254791,-0.11025 z m 45.395185,-26.88243 c -0.84943,-1.21465 -0.17787,-2.85154 1.16988,-2.85154 0.41726,0 0.94546,0.18709 1.17377,0.41577 0.47369,0.47444 0.54593,1.75546 0.14166,2.51204 -0.39782,0.74451 -1.94451,0.69704 -2.48531,-0.0763 z m -35.41331,-18.56337 c -2.41135,-1.14177 -3.81881,-3.34724 -3.81881,-5.984007 0,-3.668799 2.93311,-6.609414 6.59256,-6.609414 3.65753,0 6.58765,2.936174 6.59578,6.609414 0.0107,4.824577 -5.02539,8.040937 -9.36953,5.984007 z M 84.808046,95.670603 C 83.8601,95.228548 83.209185,94.685455 82.694712,93.907334 L 81.95125,92.782877 81.872501,86.082064 81.793751,79.38125 H 82.466876 83.14 v 6.029354 c 0,5.732285 0.02929,6.086556 0.594375,7.190319 1.031872,2.015507 1.478475,2.12616 8.581295,2.12616 h 6.145997 v 0.79375 0.79375 l -6.141875,-0.0026 c -5.936162,-0.0025 -6.187757,-0.02398 -7.511746,-0.641396 z M 76.205625,75.928055 c -0.419085,-0.251352 -0.462292,-0.852216 -0.462292,-6.428911 0,-4.431834 0.08862,-6.240407 0.317,-6.469144 0.228435,-0.228795 2.038472,-0.3175 6.478622,-0.3175 h 6.161622 l 0.271511,0.715256 c 0.321547,0.847067 0.223839,12.093992 -0.107954,12.426267 -0.335553,0.336041 -12.106873,0.404885 -12.658509,0.07403 z m 52.332115,0.10104 c -0.23935,-0.06367 -0.5052,-0.377284 -0.59077,-0.696912 -0.26136,-0.976225 -0.18004,-11.216915 0.0948,-11.941 L 128.2994,62.7125 h 6.16162 c 4.44016,0 6.25019,0.08871 6.47863,0.3175 0.22838,0.228748 0.317,2.038163 0.317,6.472983 0,5.814956 -0.0283,6.170634 -0.51097,6.429375 -0.49356,0.264561 -11.25652,0.349849 -12.20796,0.09674 z m -23.54208,-3.200256 c -1.7049,-1.712056 -3.09983,-3.231964 -3.09983,-3.377574 0,-0.432363 6.17994,-6.474182 6.62219,-6.474182 0.40118,0 6.58615,6.076138 6.58615,6.470263 0,0.325451 -6.36847,6.494321 -6.70445,6.494321 -0.16733,0 -1.69915,-1.400773 -3.40406,-3.112828 z M 92.385833,69.459375 v -0.661458 h 3.133368 3.133367 l -0.126246,0.661458 c -0.125856,0.659412 -0.135549,0.661458 -3.133368,0.661458 h -3.007121 z m 25.888337,0 v -0.661458 h 3.17 3.17 v 0.661458 0.661458 h -3.17 -3.17 z M 107.82152,59.188884 c -0.0735,-0.191739 -0.0995,-1.590723 -0.0578,-3.108854 0.0755,-2.747616 0.0788,-2.760238 0.73623,-2.760238 h 0.66042 l 0.0744,3.108854 0.0744,3.108854 h -0.67709 c -0.3724,0 -0.7372,-0.156877 -0.81066,-0.348616 z m -5.8051,-9.507868 c -0.0718,-0.187507 -0.0986,-3.136428 -0.0596,-6.553157 l 0.0711,-6.212234 h 6.47208 6.47208 v 6.482292 6.482291 l -6.41252,0.07086 c -5.04005,0.0557 -6.44048,-0.0021 -6.54314,-0.270057 z"
         id="path46" /><path
         style="fill:#3b3737"
         d="m 24.452289,156.82048 c -3.45995,-0.78753 -5.37429,-2.9312 -5.178822,-5.79923 0.131236,-1.92559 1.091487,-3.20269 3.1998,-4.25563 0.82137,-0.4102 1.4934,-0.90706 1.4934,-1.10412 0,-0.19706 -0.356625,-0.71548 -0.7925,-1.15204 -0.63789,-0.6389 -0.7925,-1.01852 -0.7925,-1.94586 0,-1.23226 0.445112,-2.06543 1.645083,-3.07931 0.992482,-0.83856 0.901141,-1.35361 -0.406433,-2.29178 -2.926258,-2.09956 -3.456213,-7.1006 -1.050716,-9.91532 1.953519,-2.28584 3.805247,-2.67487 11.567482,-2.43019 5.436565,0.17138 5.54914,0.18641 5.629481,0.75158 0.07188,0.50568 -0.07452,0.59739 -1.18875,0.74463 -3.250424,0.42952 -3.295222,0.47803 -2.339931,2.53348 0.825496,1.77618 0.897515,4.09112 0.176721,5.68043 -0.621352,1.37004 -2.585094,3.10148 -4.045013,3.56649 -0.626088,0.19942 -2.261733,0.38559 -3.634768,0.41373 l -2.496428,0.0512 -1.003781,1.0778 c -0.777576,0.83492 -1.003781,1.29272 -1.003781,2.03148 0,2.29621 0.628204,2.57056 6.34,2.76877 5.303424,0.18404 6.501457,0.53115 7.82157,2.26615 0.706212,0.92817 0.763847,1.17658 0.763847,3.29226 0,2.03363 -0.07806,2.40645 -0.701298,3.3494 -0.887308,1.34249 -2.81279,2.58762 -4.848815,3.13553 -2.132467,0.57385 -7.23638,0.74704 -9.153848,0.3106 z m 8.830373,-1.76051 c 2.749417,-1.04368 3.892338,-2.48821 3.892338,-4.9195 0,-1.52544 -0.620329,-2.61247 -1.83756,-3.22005 -0.790623,-0.39464 -1.675538,-0.4673 -5.69119,-0.4673 -4.58249,0 -4.797638,0.024 -5.930245,0.66146 -1.602756,0.90208 -2.25768,2.09542 -2.250708,4.10104 0.0082,2.36261 1.156043,3.70767 3.713708,4.35183 1.754623,0.44191 6.362853,0.15333 8.103657,-0.50748 z m -2.022648,-18.12563 c 2.326107,-0.69186 3.325694,-2.25015 3.34156,-5.20925 0.01986,-3.7039 -1.887832,-5.59812 -5.614408,-5.57476 -3.745722,0.0235 -5.650953,1.86218 -5.670417,5.47238 -0.01571,2.91344 0.963138,4.42414 3.438943,5.3075 1.361764,0.48587 2.880009,0.48726 4.504322,0.004 z m 84.834776,20.06748 c -0.29783,-0.0879 -0.46229,-0.40012 -0.46229,-0.87763 0,-0.73399 0.016,-0.74107 1.65104,-0.72987 3.3725,0.0231 5.0855,-1.62166 6.82035,-6.54861 0.55207,-1.5679 0.9487,-0.34178 -4.4789,-13.84586 -2.06393,-5.13513 -3.81929,-9.51068 -3.90081,-9.72343 -0.1165,-0.30407 0.10612,-0.38684 1.04054,-0.38684 0.88848,0 1.23354,0.11696 1.36608,0.46302 0.0975,0.25467 1.40878,3.67771 2.9139,7.60677 1.50511,3.92907 3.00604,8.06245 3.33539,9.18529 0.55764,1.90119 1.09728,2.6293 1.58185,2.13433 0.11152,-0.11391 1.04082,-2.58837 2.06512,-5.49878 1.0243,-2.91042 2.55129,-7.19667 3.39332,-9.525 l 1.53097,-4.23334 1.24577,-0.0806 1.24578,-0.0806 -0.28268,0.74205 c -0.15547,0.40814 -2.36976,6.27847 -4.92064,13.04519 -2.55089,6.76672 -4.97813,12.98258 -5.39389,13.81302 -1.60188,3.19967 -3.39068,4.47808 -6.43944,4.60211 -1.01704,0.0414 -2.0572,0.0138 -2.31146,-0.0612 z m 19.68042,-0.004 c -0.4487,-0.0982 -0.59438,-0.31678 -0.59438,-0.89189 v -0.76183 l 1.82333,0.0339 c 2.00285,0.0372 2.83435,-0.32094 3.65445,-1.57401 0.42796,-0.6539 0.47208,-1.86232 0.54084,-14.81298 l 0.0749,-14.10101 h 1.05645 1.05645 l -0.0746,14.50555 -0.0746,14.50555 -0.70289,1.06352 c -0.38809,0.58721 -1.15295,1.27742 -1.70781,1.54114 -0.98959,0.47033 -3.86956,0.75086 -5.05201,0.49209 z M 51.968333,146.7088 c -2.786276,-0.77216 -4.757876,-2.5565 -6.129535,-5.54734 -0.545625,-1.18972 -0.605991,-1.70921 -0.599527,-5.15938 0.0086,-4.61075 0.439127,-6.0229 2.536873,-8.32178 1.906958,-2.08981 3.679922,-2.89106 6.412086,-2.89781 2.976117,-0.007 4.654169,0.60749 6.382479,2.33853 1.649462,1.65206 2.407036,3.50372 2.655798,6.49129 l 0.176955,2.12519 h -7.545126 c -4.149819,0 -7.73316,0.0723 -7.96298,0.1606 -0.596856,0.2294 -0.539017,2.03277 0.136093,4.2433 0.707241,2.31574 2.562751,4.27861 4.605593,4.87208 2.373761,0.68961 6.398921,0.37737 9.247145,-0.71732 0.348316,-0.13388 0.409957,-10e-4 0.340005,0.73214 -0.07883,0.8263 -0.19796,0.93433 -1.538359,1.395 -1.984527,0.68205 -6.726223,0.83734 -8.7175,0.2855 z m 8.206534,-12.83269 c 0.910972,-0.48831 0.452384,-3.5069 -0.800502,-5.26919 -1.71531,-2.41273 -6.443959,-2.81617 -9.239004,-0.78825 -1.086025,0.78795 -2.227621,2.84386 -2.50951,4.51938 -0.295316,1.75535 -0.09663,1.81195 6.359968,1.81195 3.408867,0 5.882286,-0.10946 6.189048,-0.27389 z m 16.631537,12.83182 c -4.017683,-1.12995 -6.303823,-3.94686 -6.876831,-8.47342 -0.552175,-4.362 0.58087,-8.63295 2.908796,-10.96455 1.747297,-1.75005 3.629723,-2.48677 6.36385,-2.49059 2.030696,-0.003 2.45403,0.0875 4.013647,0.8565 2.979025,1.46888 4.4335,3.9162 4.627634,7.78653 l 0.116125,2.3151 h -7.683851 c -8.942252,0 -8.474067,-0.15705 -7.962077,2.67086 0.968046,5.34687 4.428789,7.68815 10.17426,6.88313 1.221083,-0.17109 2.699451,-0.48045 3.285263,-0.68746 l 1.065113,-0.37639 v 0.90405 c 0,0.85969 -0.06806,0.92513 -1.386875,1.33347 -2.002884,0.62013 -6.822094,0.75547 -8.645054,0.24277 z m 8.319599,-12.99736 c 0.342682,-0.34323 0.399871,-0.70528 0.261205,-1.65365 -0.559945,-3.82957 -3.040213,-5.81735 -6.877894,-5.51221 -3.300554,0.26244 -5.563742,2.40245 -6.101256,5.76919 -0.286158,1.79235 -0.130408,1.8361 6.536896,1.8361 4.999223,0 5.799083,-0.0569 6.181049,-0.43943 z m 73.491037,13.1152 c -5.06492,-1.19453 -7.99196,-6.62529 -7.07063,-13.11869 0.73022,-5.14646 3.32702,-8.04554 7.93483,-8.85847 3.30241,-0.58263 6.83652,0.51568 8.91039,2.76912 1.49985,1.62971 2.18027,3.07732 2.62652,5.58797 0.91351,5.1395 -0.66845,10.022 -3.98848,12.30984 -2.02959,1.3986 -5.64826,1.96219 -8.41263,1.31023 z m 5.81864,-1.96884 c 1.38523,-0.578 2.83994,-2.08082 3.49859,-3.6143 1.12396,-2.61684 1.18007,-7.11719 0.12829,-10.28882 -0.99499,-3.00036 -3.8467,-4.67913 -7.50192,-4.41632 -4.13282,0.29716 -6.45075,3.11241 -6.80292,8.26248 -0.27292,3.99129 1.05402,7.9573 3.12065,9.32709 2.11201,1.39986 5.22994,1.70099 7.55731,0.72987 z m 20.8697,1.98608 c -2.64964,-0.66734 -5.26793,-2.80424 -6.25129,-5.10194 -1.49798,-3.50014 -1.39607,-8.87191 0.22882,-12.06199 1.23208,-2.41888 3.30506,-4.05013 5.99029,-4.71382 1.49137,-0.36861 2.03834,-0.38716 3.58464,-0.12159 2.37609,0.4081 3.56985,1.04297 5.03946,2.68011 1.45253,1.6181 2.01502,3.14243 2.22547,6.03091 l 0.15904,2.18281 h -7.66773 c -9.02916,0 -8.53252,-0.16548 -8.04523,2.68065 0.5445,3.18032 1.81018,5.04977 4.2214,6.2352 1.3687,0.67289 1.74899,0.73738 4.1485,0.70345 1.7532,-0.0248 3.24138,-0.21296 4.42479,-0.55947 l 1.78313,-0.52211 v 0.8422 c 0,0.79224 -0.0901,0.87117 -1.51896,1.3308 -1.73768,0.55896 -6.73015,0.79579 -8.32233,0.39479 z m 7.8543,-13.05296 c 1.01511,-0.74344 0.15065,-4.32453 -1.40405,-5.81637 -1.40297,-1.34625 -4.02825,-1.83163 -6.51486,-1.2045 -1.53872,0.38806 -3.23023,1.88209 -3.99622,3.52965 -0.6731,1.44778 -0.83546,3.45826 -0.29684,3.67594 0.18161,0.0734 2.89302,0.14285 6.02534,0.15434 4.41191,0.0162 5.80588,-0.0602 6.18663,-0.33906 z M 95.82,131.10729 v -15.74271 h 1.053564 1.053565 l 0.06914,10.25261 c 0.06849,10.15598 0.07432,10.25334 0.618465,10.33124 0.387475,0.0555 0.821036,-0.27068 1.471546,-1.10694 0.50722,-0.65207 2.74787,-3.158 4.97923,-5.56874 l 4.05701,-4.38317 h 1.16915 1.16914 l -1.01811,1.17703 c -0.55996,0.64736 -2.4149,2.65573 -4.12207,4.46305 -1.78057,1.885 -3.10396,3.50609 -3.10396,3.80218 0,0.28388 1.79576,2.88918 3.99058,5.78955 2.19482,2.90037 4.22379,5.60082 4.50882,6.00101 l 0.51824,0.7276 h -1.30906 -1.30906 l -3.92622,-5.28116 c -2.93199,-3.94382 -4.06913,-5.28382 -4.49057,-5.29167 -0.32041,-0.006 -1.14824,0.53855 -1.915211,1.25975 l -1.35086,1.27025 v 4.02142 4.02141 H 96.876667 95.82 Z m 45.60969,-10.93489 c -1.14798,-1.27052 0.0698,-3.41207 1.55488,-2.73435 0.62435,0.28492 0.79593,0.79174 0.68642,2.02757 -0.0983,1.10926 -1.48306,1.54594 -2.2413,0.70678 z m -34.99478,-18.54017 c -4.65446,-1.61007 -5.89452,-7.671822 -2.22889,-10.895367 1.3169,-1.158075 2.58276,-1.641313 4.31775,-1.648288 3.54214,-0.01424 6.38538,2.844573 6.39724,6.432258 0.009,2.856243 -1.8712,5.389927 -4.60405,6.202777 -1.74093,0.51782 -2.14873,0.50822 -3.88205,-0.0914 z M 84.778815,95.486916 c -1.247494,-0.61847 -2.19603,-1.729465 -2.658999,-3.114419 -0.189003,-0.565393 -0.300649,-3.095415 -0.300649,-6.813021 0,-5.654516 0.02222,-5.913643 0.50705,-5.913643 0.482914,0 0.511208,0.292834 0.594375,6.151563 0.084,5.917191 0.110942,6.189609 0.707203,7.150164 1.124606,1.8117 1.509817,1.901491 8.559913,1.99527 5.998411,0.07979 6.273959,0.105936 6.273959,0.595313 0,0.491725 -0.246762,0.511849 -6.273959,0.511648 -5.866338,-1.95e-4 -6.347695,-0.03677 -7.408893,-0.562875 z M 76.188277,75.769951 C 76.08885,75.670367 76.0075,72.749116 76.0075,69.278282 v -6.310606 l 6.406042,0.07085 6.406041,0.07085 v 6.35 6.35 l -6.225264,0.07082 c -3.423896,0.03895 -6.306614,-0.01066 -6.406042,-0.110243 z m 51.980573,-0.159935 c -0.0719,-0.187693 -0.0987,-3.07712 -0.0596,-6.42095 l 0.0712,-6.079691 6.41075,-0.07086 6.41074,-0.07086 -0.0707,6.420861 -0.0708,6.42086 -6.28041,0.07095 c -4.93549,0.05576 -6.30841,-0.0021 -6.41116,-0.270309 z M 105.12757,72.696381 C 103.4954,71.056994 102.16,69.596618 102.16,69.451099 c 0,-0.145518 1.4265,-1.689607 3.17,-3.431307 l 3.17,-3.166729 3.17,3.166729 c 1.7435,1.7417 3.17,3.289594 3.17,3.439763 0,0.431793 -5.90756,6.217528 -6.34844,6.217528 -0.21804,0 -1.73183,-1.341316 -3.36399,-2.980702 z M 92.561944,69.944444 c -0.09686,-0.09701 -0.176111,-0.39467 -0.176111,-0.661458 0,-0.44225 0.26817,-0.485069 3.037917,-0.485069 h 3.037917 v 0.661458 0.661458 h -2.861806 c -1.573993,0 -2.941055,-0.07937 -3.037917,-0.176389 z M 118.53833,69.46804 v -0.670123 h 3.05629 c 3.01839,0 3.05525,0.0074 2.97188,0.595312 -0.0811,0.571848 -0.20156,0.598261 -3.05629,0.670124 l -2.97188,0.07481 z M 107.97167,56.3625 c 0,-2.734028 0.032,-2.910417 0.52833,-2.910417 0.49631,0 0.52833,0.176389 0.52833,2.910417 0,2.734028 -0.032,2.910417 -0.52833,2.910417 -0.49631,0 -0.52833,-0.176389 -0.52833,-2.910417 z m -5.91549,-7.033098 c -0.0882,-0.230183 -0.16035,-2.958883 -0.16035,-6.063777 0,-3.104894 0.0722,-5.833594 0.16035,-6.063777 0.14,-0.365399 0.9578,-0.418515 6.44382,-0.418515 5.48602,0 6.30382,0.05312 6.44382,0.418515 0.0882,0.230183 0.16035,2.958883 0.16035,6.063777 0,3.104894 -0.0722,5.833594 -0.16035,6.063777 -0.14,0.365399 -0.9578,0.418515 -6.44382,0.418515 -5.48602,0 -6.30382,-0.05312 -6.44382,-0.418515 z"
         id="path45" /></g></g></svg>
